<svg xmlns="http://www.w3.org/2000/svg" width="25.979" height="34.834" viewBox="0 0 25.979 34.834">
  <g id="noun-arrow-1920798" transform="translate(25.979) rotate(90)">
    <path id="Path_40332" data-name="Path 40332" d="M36.967,28.5l-11.7,11.7a1.27,1.27,0,0,1-1.8-1.8l9.533-9.533H3.783a1.283,1.283,0,1,1,0-2.567H32.97l-9.533-9.533a1.24,1.24,0,0,1,0-1.8,1.329,1.329,0,0,1,1.833,0l11.7,11.7a1.216,1.216,0,0,1,.367.917A1.371,1.371,0,0,1,36.967,28.5Z" transform="translate(-2.5 -14.6)" fill="#212529"/>
  </g>
</svg>
