<svg id="noun-e-mail-6249282" xmlns="http://www.w3.org/2000/svg" width="29.26" height="29.256" viewBox="0 0 29.26 29.256">
  <path id="Path_40205" data-name="Path 40205" d="M25.153,47.725a39.612,39.612,0,0,0,12.955,0,1.417,1.417,0,0,0-.472-2.794,36.473,36.473,0,0,1-12.026,0,6.438,6.438,0,0,1-5.281-5.286,36.587,36.587,0,0,1,0-12.026,6.433,6.433,0,0,1,5.291-5.286,36.492,36.492,0,0,1,12.026,0,6.438,6.438,0,0,1,5.291,5.286,36.7,36.7,0,0,1,.5,6.013v1.18a2.6,2.6,0,1,1-5.192,0v-1.18a6.631,6.631,0,1,0-2.081,4.8l.349-.33.326.354a5.418,5.418,0,0,0,9.43-3.644V32.688a39.7,39.7,0,0,0-.514-5.546,9.269,9.269,0,0,0-7.636-7.6,39.338,39.338,0,0,0-12.955,0,9.265,9.265,0,0,0-7.618,7.613,39.4,39.4,0,0,0,0,12.955,9.269,9.269,0,0,0,7.613,7.618Zm6.48-10.317a3.776,3.776,0,1,1,3.776-3.776A3.776,3.776,0,0,1,31.633,37.408Z" transform="translate(-17.004 -19.002)" fill="#1b2020"/>
</svg>
