<svg xmlns="http://www.w3.org/2000/svg" width="67.324" height="64.098" viewBox="0 0 67.324 64.098">
  <g id="noun-suitcase-7368658" transform="translate(-6.249 -8.347)">
    <path id="Path_40428" data-name="Path 40428" d="M52.274,43.889a2.356,2.356,0,0,0,2.4-2.293V38.968H65v9.639a1.2,1.2,0,0,0,2.4,0V38.971l1.115,0a1.2,1.2,0,0,0,1.2-1.2V23.042a3.662,3.662,0,0,0-3.655-3.658H53.3V14.458a6.117,6.117,0,0,0-6.11-6.11h-18.4a6.117,6.117,0,0,0-6.11,6.11v4.929l-12.771,0a3.662,3.662,0,0,0-3.655,3.658V37.766a1.2,1.2,0,0,0,1.2,1.2H8.569V62.3a3.61,3.61,0,0,0,3.559,3.655H46.136a1.2,1.2,0,0,0,0-2.4H12.128a1.2,1.2,0,0,1-1.154-1.25V38.968H21.292V41.6a2.356,2.356,0,0,0,2.4,2.293h2.4a2.356,2.356,0,0,0,2.4-2.293V38.968h18.96V41.6a2.356,2.356,0,0,0,2.4,2.293Zm0-2.4-2.4-.009V38.968h2.4ZM25.079,14.458a3.71,3.71,0,0,1,3.706-3.706h18.4a3.71,3.71,0,0,1,3.706,3.706v4.929l-1.957,0V14.458a1.755,1.755,0,0,0-1.749-1.749h-18.4a1.753,1.753,0,0,0-1.749,1.749v4.929l-1.957,0Zm21.451.655v4.271H29.44V15.113ZM26.1,41.484l-2.4-.009V38.968h2.4ZM8.653,36.564V23.042A1.27,1.27,0,0,1,9.9,21.788H66.066a1.27,1.27,0,0,1,1.25,1.253V36.564Z" fill="#3c4646"/>
    <path id="Path_40429" data-name="Path 40429" d="M73.733,66.978c-4.848-3.958-12.713-.2-12.512,6.1C61.29,80.146,73.078,85.6,73.73,85.589S86.17,80.146,86.243,73.08c.2-6.3-7.664-10.06-12.509-6.1Zm0,16.083c-3.225-1.548-10.108-5.741-10.1-10.09.015-4.824,6.077-6.907,9.356-3.52.766.625,1.554.009,2.152-.52a5.381,5.381,0,0,1,5.693-.64,5.2,5.2,0,0,1,3.012,4.788c0,4.247-6.883,8.434-10.108,9.982Z" transform="translate(-12.674 -13.144)" fill="#3c4646"/>
  </g>
</svg>
