<svg id="GB_logo_DIGITAL" xmlns="http://www.w3.org/2000/svg" width="52.755" height="20.902" viewBox="0 0 52.755 20.902">
  <g id="Group_15694" data-name="Group 15694" transform="translate(31.928 0.074)">
    <path id="Path_40249" data-name="Path 40249" d="M151.028.3H130.2V21.128h20.828Zm-2.45,18.4H132.6V2.726h15.976V6.377h-12.3v8.674h8.674V12.625H137.5V8.8h11.1v9.9Z" transform="translate(-130.2 -0.3)" fill="#3c4646"/>
  </g>
  <g id="Group_15695" data-name="Group 15695" transform="translate(0)">
    <path id="Path_40250" data-name="Path 40250" d="M4.286,1.176A3.231,3.231,0,0,0,2.938.931,1.641,1.641,0,0,0,1.2,2.671a1.094,1.094,0,0,0,1.152,1.2A1.83,1.83,0,0,0,2.84,3.8l.2-.907H2.3l.172-.882H4.409L3.87,4.582a6.337,6.337,0,0,1-1.617.2A2.1,2.1,0,0,1-.1,2.622C-.051,1.1.88,0,3.012,0A6.344,6.344,0,0,1,4.556.221Z" transform="translate(0.1)" fill="#3c4646"/>
    <path id="Path_40251" data-name="Path 40251" d="M21.48.3h1.47c.882,0,1.936.025,1.936,1.176,0,.809-.637,1.1-1.348,1.176v.025c.368.025.49.515.539.809L24.4,4.907H23.171L22.926,3.73c-.123-.613-.147-.637-.711-.637h-.123l-.368,1.838H20.5Zm.833,1.936h.417c.539,0,.956-.123.956-.564,0-.319-.2-.466-.564-.466h-.588Z" transform="translate(-15.452 -0.226)" fill="#3c4646"/>
    <path id="Path_40252" data-name="Path 40252" d="M42.458,4.778A1.823,1.823,0,0,1,40.4,2.891C40.4,1.127,41.331,0,43.1,0a1.823,1.823,0,0,1,2.058,1.887A2.544,2.544,0,0,1,42.458,4.778ZM43.046.907c-.956,0-1.348,1.1-1.348,1.887,0,.588.221,1.054.858,1.054.956,0,1.348-1.1,1.348-1.887C43.9,1.4,43.683.907,43.046.907Z" transform="translate(-30.476)" fill="#3c4646"/>
    <path id="Path_40253" data-name="Path 40253" d="M64.052,1.207H62.9L63.1.3h3.553l-.2.907H65.3l-.784,3.7h-1.25Z" transform="translate(-47.463 -0.226)" fill="#3c4646"/>
    <path id="Path_40254" data-name="Path 40254" d="M78.031.3h1.225l-.368,1.764h1.47L80.751.3h1.225l-.956,4.607H79.8l.417-1.985h-1.47l-.417,1.985H77.1Z" transform="translate(-58.183 -0.226)" fill="#3c4646"/>
    <path id="Path_40255" data-name="Path 40255" d="M98.3.3h3.259l-.172.882H99.358l-.221.956h1.936l-.2.882H98.942l-.221,1.054h2.107l-.172.882H97.3Z" transform="translate(-73.434 -0.226)" fill="#3c4646"/>
    <path id="Path_40256" data-name="Path 40256" d="M.956,25.8H3.014c.466,0,1.3.2,1.3,1.054a1.247,1.247,0,0,1-1.2,1.176v.024a.893.893,0,0,1,.882.882c0,.98-.833,1.446-1.887,1.446L0,30.431ZM1.4,29.549h.319c.613,0,1.029-.172,1.029-.613,0-.392-.294-.466-.858-.466h-.27Zm.417-1.911h.466c.515,0,.809-.2.809-.515,0-.368-.294-.441-.76-.441H2.009Z" transform="translate(0.025 -19.478)" fill="#3c4646"/>
    <path id="Path_40257" data-name="Path 40257" d="M19.544,25.8h1.544l.76,4.607H20.6l-.123-.98H18.687l-.539.98H16.8Zm.613.956h0l-.98,1.813h1.2Z" transform="translate(-12.659 -19.478)" fill="#3c4646"/>
    <path id="Path_40258" data-name="Path 40258" d="M45.515,27.956c-.294,1.47-.662,2.548-2.352,2.548-1.029,0-1.862-.368-1.862-1.446a4,4,0,0,1,.1-.882l.515-2.377h1.274l-.564,2.622a3.005,3.005,0,0,0-.1.515.617.617,0,0,0,.662.662c.784,0,.931-.956,1.078-1.691l.466-2.083h1.225Z" transform="translate(-31.156 -19.478)" fill="#3c4646"/>
  </g>
  <g id="Group_15696" data-name="Group 15696" transform="translate(39.989 9.703)">
    <path id="Path_40259" data-name="Path 40259" d="M164.546,40.068a1.187,1.187,0,0,0-.441-.074.551.551,0,0,0-.588.588.36.36,0,0,0,.392.392.479.479,0,0,0,.172-.025l.073-.294h-.245l.049-.294h.637l-.172.858a2.041,2.041,0,0,1-.539.074.7.7,0,0,1-.784-.711c0-.515.319-.882,1.029-.882a1.742,1.742,0,0,1,.515.074Z" transform="translate(-163.1 -39.675)" fill="#3c4646"/>
    <path id="Path_40260" data-name="Path 40260" d="M170.343,39.7h.49c.294,0,.637,0,.637.392,0,.27-.221.368-.441.392h0c.123,0,.172.172.172.27l.122.466h-.417l-.074-.392c-.049-.2-.049-.221-.245-.221h-.049l-.123.613H170Zm.27.637h.147c.172,0,.319-.049.319-.2,0-.123-.074-.147-.2-.147h-.2Z" transform="translate(-168.309 -39.675)" fill="#3c4646"/>
    <path id="Path_40261" data-name="Path 40261" d="M177.586,41.193a.617.617,0,0,1-.686-.637.852.852,0,0,1,.907-.956.617.617,0,0,1,.686.637A.875.875,0,0,1,177.586,41.193Zm.172-1.3c-.319,0-.441.368-.441.637,0,.2.074.343.294.343.319,0,.441-.368.441-.637C178.052,40.066,177.978,39.894,177.758,39.894Z" transform="translate(-173.519 -39.6)" fill="#3c4646"/>
    <path id="Path_40262" data-name="Path 40262" d="M184.892,39.994H184.5l.074-.294h1.176l-.073.294h-.392l-.27,1.225h-.392Z" transform="translate(-179.256 -39.675)" fill="#3c4646"/>
    <path id="Path_40263" data-name="Path 40263" d="M189.719,39.7h.417l-.123.588h.49l.123-.588h.417l-.319,1.544h-.417l.147-.662h-.49l-.147.662H189.4Z" transform="translate(-182.956 -39.675)" fill="#3c4646"/>
    <path id="Path_40264" data-name="Path 40264" d="M196.719,39.7H197.8l-.049.294h-.686l-.074.319h.637l-.074.294h-.637l-.073.343h.711l-.049.294h-1.1Z" transform="translate(-188.24 -39.675)" fill="#3c4646"/>
  </g>
  <g id="Group_15697" data-name="Group 15697" transform="translate(0.049 12.399)">
    <rect id="Rectangle_34410" data-name="Rectangle 34410" width="29.428" height="2.426" fill="#ffcd00"/>
  </g>
</svg>
