<svg xmlns="http://www.w3.org/2000/svg" width="53.208" height="42.701" viewBox="0 0 53.208 42.701">
  <path id="Path_40342" data-name="Path 40342" d="M56.136,29.061a13.526,13.526,0,0,0,.13-1.631A9.259,9.259,0,0,0,47,18.164a9.435,9.435,0,0,0-7.9,4.372A11.374,11.374,0,0,0,30.033,18.1a11.523,11.523,0,0,0-11.486,10.9H17.175a6.906,6.906,0,0,0-5.024,2.088A6.733,6.733,0,0,0,10,36.109a7.185,7.185,0,0,0,7.112,7.178h7.831v5.939l-3.849,4.568a2.511,2.511,0,0,0-1.175-.2,2.46,2.46,0,0,0-1.631.913,2.318,2.318,0,0,0,.393,3.329,2.614,2.614,0,0,0,1.5.523,2.506,2.506,0,0,0,1.891-.913,2.451,2.451,0,0,0,.066-2.87l3.982-4.7a.48.48,0,0,0,.13-.393v-6.2l9.2,0V55.1a2.4,2.4,0,1,0,3.067,2.284A2.315,2.315,0,0,0,36.755,55.1V43.287h9.2v6.2a.719.719,0,0,0,.13.393l3.982,4.7a2.45,2.45,0,0,0,.066,2.87,2.413,2.413,0,0,0,1.891.913,2.614,2.614,0,0,0,1.5-.523,2.389,2.389,0,0,0,.393-3.329,2.568,2.568,0,0,0-1.631-.913,1.8,1.8,0,0,0-1.175.2l-3.849-4.568V43.285H55.1A6.906,6.906,0,0,0,60.12,41.2a7.005,7.005,0,0,0,2.088-5.024,7.126,7.126,0,0,0-6.072-7.112ZM21.027,56.6a1.121,1.121,0,0,1-1.5.2,1.133,1.133,0,0,1-.393-.719.9.9,0,0,1,.26-.783,1.133,1.133,0,0,1,.719-.393h.13a.846.846,0,0,1,.653.26,1.021,1.021,0,0,1,.133,1.438Zm30.344-1.5a1.381,1.381,0,0,1,.653-.26h.13a1.573,1.573,0,0,1,.719.393,1.137,1.137,0,0,1,.26.783,1.573,1.573,0,0,1-.393.719,1,1,0,0,1-1.5-.2.936.936,0,0,1,.133-1.438Zm-14.16,2.284A1.1,1.1,0,0,1,36.1,58.493a1.109,1.109,0,1,1,1.109-1.109ZM59.2,40.221a5.722,5.722,0,0,1-4.112,1.7H17.112a5.835,5.835,0,0,1-5.807-5.873,5.8,5.8,0,0,1,5.809-5.809h2.021a.615.615,0,0,0,.653-.653,10.23,10.23,0,0,1,18.795-5.61.14.14,0,0,0,.13.13c.066.066.13.066.13.13h.066c.066,0,.13.066.2.066a.238.238,0,0,0,.2-.066h.066c.066,0,.066-.066.13-.066a.065.065,0,0,0,.066-.066c.066-.066.066-.13.13-.2A7.946,7.946,0,0,1,54.834,27.3a7.259,7.259,0,0,1-.26,2.024v.329c0,.066,0,.066.066.13,0,.066.066.066.066.13a.065.065,0,0,0,.066.066l.066.066c.066,0,.066.066.13.066h.2a5.826,5.826,0,0,1,5.613,5.807A5.321,5.321,0,0,1,59.2,40.221Z" transform="translate(-9.5 -17.597)" fill="#3c4646" stroke="#1b2020" stroke-width="1"/>
</svg>
