<svg xmlns="http://www.w3.org/2000/svg" width="49.242" height="49.219" viewBox="0 0 49.242 49.219">
  <g id="noun-sparkle-6404470" transform="translate(-3.999 -4.031)">
    <path id="Path_40339" data-name="Path 40339" d="M21.88,50.216a1.232,1.232,0,0,0,2.4,0C27.051,37.962,28.948,36.064,41.2,33.3a1.232,1.232,0,0,0,0-2.4C28.948,28.125,27.05,26.227,24.283,13.972a1.232,1.232,0,0,0-2.4,0C19.111,26.227,17.214,28.125,4.959,30.892a1.232,1.232,0,0,0,0,2.4c12.255,2.769,14.152,4.667,16.921,16.921Zm1.2-30.957C25.336,26.988,28.189,29.84,35.917,32.1,28.189,34.35,25.336,37.2,23.081,44.931,20.826,37.2,17.974,34.35,10.245,32.1,17.974,29.84,20.826,26.989,23.081,19.259Z" transform="translate(0 2.075)" fill="#1b2020"/>
    <path id="Path_40340" data-name="Path 40340" d="M47.192,13.889c-6.515-1.471-7.429-2.386-8.9-8.9a1.232,1.232,0,0,0-2.4,0c-1.471,6.513-2.386,7.428-8.9,8.9a1.232,1.232,0,0,0,0,2.4c6.513,1.471,7.428,2.386,8.9,8.9a1.232,1.232,0,0,0,2.4,0c1.471-6.515,2.386-7.429,8.9-8.9a1.232,1.232,0,0,0,0-2.4Zm-10.1,6.526a8.172,8.172,0,0,0-5.324-5.324,8.169,8.169,0,0,0,5.324-5.324,8.172,8.172,0,0,0,5.324,5.324A8.174,8.174,0,0,0,37.091,20.415Z" transform="translate(5.09)" fill="#1b2020"/>
  </g>
</svg>
