<svg xmlns="http://www.w3.org/2000/svg" width="46.044" height="29.752" viewBox="0 0 46.044 29.752">
  <path id="Path_40430" data-name="Path 40430" d="M47.992,28.368A20.721,20.721,0,0,0,39.1,12.651v6.316a.835.835,0,0,1-1.669,0V10.943a1.175,1.175,0,0,0-1.076-1.253H32.394l1.343,14.975a.833.833,0,0,1-1.66.149L30.567,8.123a1.313,1.313,0,0,0-1.319-1.209h-2.11a1.326,1.326,0,0,0-1.327,1.209l-.067.733-.016.167L24.311,24.815a.833.833,0,0,1-1.66-.149L23.994,9.691H19.965A1.17,1.17,0,0,0,18.9,10.943v8.024a.835.835,0,0,1-1.669,0c0-1.361,0-4.845,0-6.164A20.776,20.776,0,0,0,8.553,28.368a2.391,2.391,0,0,0-2.3,2.387v1.526a2.4,2.4,0,0,0,2.385,2.385H47.91a2.4,2.4,0,0,0,2.385-2.385V30.755a2.391,2.391,0,0,0-2.3-2.387Z" transform="translate(-5.251 -5.914)" fill="none" stroke="#1b2020" stroke-width="2"/>
</svg>
