<svg xmlns="http://www.w3.org/2000/svg" width="48.336" height="48.336" viewBox="0 0 48.336 48.336">
  <g id="Group_16123" data-name="Group 16123" transform="translate(-1635.832 -3383)">
    <g id="noun-euro-7044185" transform="translate(1636.137 3380.635)">
      <path id="Path_40345" data-name="Path 40345" d="M35.893,28.706c2.2,0,4.2,1.677,5.11,4.264a.8.8,0,0,0,1.518-.527c-1.133-3.241-3.721-5.318-6.612-5.318-3.289,0-6.053,2.714-6.916,6.389H27.923a.8.8,0,0,0,0,1.6h.831c-.016.256-.031.527-.031.8a6.635,6.635,0,0,0,.031.8h-.831a.8.8,0,1,0,0,1.6h1.071c.862,3.673,3.625,6.389,6.916,6.389,2.891,0,5.478-2.092,6.612-5.318A.8.8,0,0,0,41,38.845c-.91,2.587-2.906,4.264-5.11,4.264-2.427,0-4.472-2.012-5.239-4.791h6.835a.8.8,0,0,0,0-1.6H30.366c-.016-.271-.064-.527-.064-.8a6.514,6.514,0,0,1,.064-.8h7.122a.8.8,0,0,0,0-1.6H30.654c.767-2.779,2.827-4.791,5.239-4.791Z" transform="translate(-11.675 -8.807)" fill="#3c4646"/>
    </g>
    <path id="Path_40433" data-name="Path 40433" d="M30.418,6.25A24.168,24.168,0,1,0,54.586,30.418,24.18,24.18,0,0,0,30.418,6.25Zm0,2.3a21.748,21.748,0,0,1,10.021,2.436l-3.353,6.038a14.954,14.954,0,0,0-13.335,0L20.4,10.989A21.747,21.747,0,0,1,30.419,8.552Zm-12.011,3.6,3.371,6.062a15.049,15.049,0,0,0-3.567,3.567L12.15,18.41a22.019,22.019,0,0,1,6.258-6.258Zm24.021,0a22.019,22.019,0,0,1,6.258,6.258L42.625,21.78a15.049,15.049,0,0,0-3.567-3.567ZM30.418,17.76a12.66,12.66,0,1,1-12.66,12.66,12.667,12.667,0,0,1,12.66-12.66ZM10.989,20.4l6.038,3.353a14.949,14.949,0,0,0,0,13.333l-6.038,3.355a21.829,21.829,0,0,1,0-20.043Zm38.861,0a21.829,21.829,0,0,1,0,20.043l-6.038-3.355a14.949,14.949,0,0,0,0-13.333ZM18.213,39.06a15.049,15.049,0,0,0,3.567,3.567l-3.371,6.062a22.026,22.026,0,0,1-6.258-6.26Zm24.414,0,6.062,3.368a22.028,22.028,0,0,1-6.258,6.26L39.06,42.627a15.049,15.049,0,0,0,3.567-3.567ZM23.752,43.811a14.954,14.954,0,0,0,13.335,0l3.353,6.038a21.829,21.829,0,0,1-20.043,0Z" transform="translate(1629.582 3376.75)" fill="#3c4646" fill-rule="evenodd"/>
  </g>
</svg>
