<svg xmlns="http://www.w3.org/2000/svg" width="45.019" height="45.018" viewBox="0 0 45.019 45.018">
  <path id="Path_40432" data-name="Path 40432" d="M15.623,27.4A16.747,16.747,0,0,0,12.2,30.861a1.406,1.406,0,1,0,2.321,1.586s6.64-9.588,18.619-3.749a1.411,1.411,0,0,0,1.611-.266s2.68-2.49,8.673-1.715a1.406,1.406,0,0,0,.366-2.789c-5.529-.716-8.821.906-10.221,1.864-6.148-2.742-11.057-2.035-14.617-.408,1.337-5.738,2.434-8.707,5.515-11.979,2.124.128,8.722.441,11.431-.422,1.7-.545,2.293-1.653,2.047-2.738-.4-1.818-.992-5.808-2.314-8.045A3.875,3.875,0,0,0,32.357,0a44.42,44.42,0,0,0-8.814,1.217,16.309,16.309,0,0,0-6.155,2.625C12.317,8.065,5.852,18.834,2.448,25.816.886,29.03,0,31.526,0,32.358A27.831,27.831,0,0,0,1.5,41.3a1.411,1.411,0,0,0,.907.849,73.644,73.644,0,0,0,19.4,2.873,124.877,124.877,0,0,0,22.059-2.133,1.407,1.407,0,1,0-.506-2.768,122.034,122.034,0,0,1-21.553,2.087,70.831,70.831,0,0,1-17.888-2.55,25.4,25.4,0,0,1-1.1-7.3,4.464,4.464,0,0,1,.317-1.1,45.3,45.3,0,0,1,1.85-4.213C8.23,20.376,14.335,10.04,19.189,6.006A13.358,13.358,0,0,1,24.218,3.95a41.123,41.123,0,0,1,8.138-1.136c.26,0,.429.218.612.454a5.509,5.509,0,0,1,.647,1.192,30.793,30.793,0,0,1,1.463,5.8,8.266,8.266,0,0,1-1.2.294,58.3,58.3,0,0,1-9.855.005,1.4,1.4,0,0,0-1.111.415c-4.256,4.3-5.409,7.853-7.294,16.432Z" transform="translate(0 0)" fill="#3c4646" fill-rule="evenodd"/>
</svg>
