<svg xmlns="http://www.w3.org/2000/svg" width="56.14" height="56.14" viewBox="0 0 56.14 56.14">
  <g id="noun-arrow-1920798" transform="translate(0 32.158) rotate(-45)">
    <path id="Path_40332" data-name="Path 40332" d="M47.5,32.743,32.228,48.014a1.659,1.659,0,1,1-2.346-2.346L42.329,33.222H4.175a1.675,1.675,0,1,1,0-3.351H42.281L29.834,17.424a1.619,1.619,0,0,1,0-2.346,1.735,1.735,0,0,1,2.394,0L47.5,30.35a1.588,1.588,0,0,1,.479,1.2A1.79,1.79,0,0,1,47.5,32.743Z" transform="translate(-2.5 -14.6)" fill="#1b2020"/>
  </g>
</svg>
