<svg xmlns="http://www.w3.org/2000/svg" width="87.5" height="59.366" viewBox="0 0 87.5 59.366">
  <g id="noun-fighting-together-6891844_1_" data-name="noun-fighting-together-6891844 (1)" transform="translate(-6.25 -20.322)">
    <g id="Group_15950" data-name="Group 15950">
      <path id="Path_40434" data-name="Path 40434" d="M7.813,31.25H32.375a1.563,1.563,0,0,0,0-3.125H7.813a1.563,1.563,0,0,0,0,3.125Z" fill="#3c4646"/>
      <path id="Path_40435" data-name="Path 40435" d="M71.844,53.188l-19-18.656a1.569,1.569,0,0,0-2.141-.047L48,36.938a10.359,10.359,0,0,1-6.75,2.5A10.242,10.242,0,0,1,35.219,37.5L50.531,24.548a4.7,4.7,0,0,1,5.625-.328l10.156,6.766a1.548,1.548,0,0,0,.859.266h25a1.562,1.562,0,0,0,0-3.125H67.64l-9.766-6.5a7.819,7.819,0,0,0-9.375.547L31.781,36.314a1.57,1.57,0,0,0-.094,2.3,13.49,13.49,0,0,0,18.359.672L51.687,37.8,69.625,55.407a2.288,2.288,0,0,1,.656,1.641,3.048,3.048,0,0,1-.937,2.125,2.877,2.877,0,0,1-3.656.453,1.638,1.638,0,0,1-.172-.125l-.047-.047L54.5,48.907a1.558,1.558,0,0,0-2.156,2.25L63.313,61.7l.063.063,1.063,1.047a2.233,2.233,0,0,1,.656,1.406,2.934,2.934,0,0,1-.937,2.344,2.806,2.806,0,0,1-3.875.281L59.125,65.7a.45.45,0,0,1-.094-.062L48.14,55.141a1.558,1.558,0,0,0-2.156,2.25L56.984,68a2.251,2.251,0,0,1,.609,1.563,3.048,3.048,0,0,1-.937,2.125,2.822,2.822,0,0,1-3.891.266l-2.328-2.281L41.8,61.391a1.558,1.558,0,1,0-2.156,2.25l8.625,8.266a2.195,2.195,0,0,1,.656,1.609A3.069,3.069,0,0,1,48,75.641a2.838,2.838,0,0,1-3.891.266L24.562,56.7a1.605,1.605,0,0,0-1.094-.453H7.813a1.563,1.563,0,0,0,0,3.125H22.829l19.094,18.75a5.455,5.455,0,0,0,3.891,1.563A6.257,6.257,0,0,0,50.2,77.86a6.159,6.159,0,0,0,1.641-2.8,6.079,6.079,0,0,0,7.016-1.172,6.236,6.236,0,0,0,1.8-3.453,6.282,6.282,0,0,0,7.578-6.516,4.289,4.289,0,0,0-.125-.781,6.258,6.258,0,0,0,3.469-1.75,6.169,6.169,0,0,0,1.875-4.344,5.345,5.345,0,0,0-1.594-3.859Z" fill="#3c4646"/>
      <path id="Path_40436" data-name="Path 40436" d="M92.188,56.25H78.047a1.563,1.563,0,0,0,0,3.125H92.188a1.563,1.563,0,0,0,0-3.125Z" fill="#3c4646"/>
    </g>
  </g>
</svg>
