<svg xmlns="http://www.w3.org/2000/svg" width="184.993" height="33.481" viewBox="0 0 184.993 33.481">
  <g id="Group_51" data-name="Group 51" transform="translate(-471.427 -42.901)">
    <path id="Pfad_1" data-name="Pfad 1" d="M23.512,20.264a6.815,6.815,0,0,0-2.685-5.744c-1.388-1.062-3.1-1.692-6.155-2.084l-3.749-.472a8.082,8.082,0,0,1-3.7-1.3,3.1,3.1,0,0,1-1.249-2.6C5.971,5.59,8.1,3.7,11.988,3.7a10.753,10.753,0,0,1,7.173,2.159l3.194-2.674C19.533.945,16.477,0,12.127,0,5.277,0,1.112,3.344,1.112,8.226a6.449,6.449,0,0,0,2.407,5.347,12.34,12.34,0,0,0,6.248,2.243l3.887.472a6.3,6.3,0,0,1,3.61,1.18,3.484,3.484,0,0,1,1.3,2.911c0,2.715-2.5,4.288-6.8,4.288-3.378,0-6.017-.629-8.423-2.674L0,24.787c3.148,2.714,6.711,3.7,11.663,3.7,6.9,0,11.848-3.068,11.848-8.226" transform="translate(632.198 46.745)" fill="#1b2020" stroke="#1b2020" stroke-width="1"/>
    <path id="Pfad_2" data-name="Pfad 2" d="M23.512,20.264a6.815,6.815,0,0,0-2.685-5.744c-1.388-1.062-3.1-1.692-6.155-2.084l-3.749-.472a8.082,8.082,0,0,1-3.7-1.3,3.1,3.1,0,0,1-1.249-2.6C5.971,5.59,8.1,3.7,11.988,3.7a10.753,10.753,0,0,1,7.173,2.159l3.194-2.674C19.533.945,16.477,0,12.127,0,5.277,0,1.112,3.344,1.112,8.226a6.449,6.449,0,0,0,2.407,5.347,12.34,12.34,0,0,0,6.248,2.243l3.887.472a6.3,6.3,0,0,1,3.61,1.18,3.484,3.484,0,0,1,1.3,2.911c0,2.715-2.5,4.288-6.8,4.288-3.378,0-6.017-.629-8.423-2.674L0,24.787c3.148,2.714,6.711,3.7,11.663,3.7C18.561,28.485,23.512,25.412,23.512,20.264Z" transform="translate(632.198 46.745)" fill="none" stroke="#1b2020" stroke-width="1.4"/>
    <path id="Pfad_4" data-name="Pfad 4" d="M23.137,3.816V0H0V3.816H9.072V28.01h5V3.816Z" transform="translate(472.127 47.445)" fill="#1b2020" stroke="#1b2020" stroke-width="1"/>
    <path id="Pfad_5" data-name="Pfad 5" d="M23.137,3.816V0H0V3.816H9.072V28.01h5V3.816Z" transform="translate(472.127 47.445)" fill="none" stroke="#1b2020" stroke-width="1.4"/>
    <path id="Pfad_7" data-name="Pfad 7" d="M21.059,28.011V24.195H5V15.776H18.7V12H5V3.816h16.06V0H0V28.011Z" transform="translate(503.679 47.443)" fill="#1b2020" stroke="#1b2020" stroke-width="1"/>
    <path id="Pfad_8" data-name="Pfad 8" d="M21.059,28.011V24.195H5V15.776H18.7V12H5V3.816h16.06V0H0V28.011Z" transform="translate(503.679 47.443)" fill="none" stroke="#1b2020" stroke-width="1.4"/>
    <path id="Pfad_9" data-name="Pfad 9" d="M23,8.183C23,3.423,19.021,0,12.774,0H0V28.01H5v-11.8h6.246l6.942,11.8h5.831L16.43,15.618C20.132,14.753,23,12.2,23,8.183m-5,.039c0,2.754-2.267,4.367-5.6,4.367H5V3.816h7.4c3.333,0,5.6,1.652,5.6,4.406" transform="translate(532.974 47.445)" fill="#1b2020" stroke="#1b2020" stroke-width="1"/>
    <path id="Pfad_10" data-name="Pfad 10" d="M23,8.183C23,3.423,19.021,0,12.774,0H0V28.01H5v-11.8h6.246l6.942,11.8h5.831L16.43,15.618C20.133,14.753,23,12.2,23,8.183Zm-5,.039c0,2.754-2.267,4.367-5.6,4.367H5V3.816h7.4c3.333,0,5.6,1.652,5.6,4.4Z" transform="translate(532.974 47.445)" fill="none" stroke="#1b2020" stroke-width="1.4"/>
    <path id="Pfad_11" data-name="Pfad 11" d="M23,8.183C23,3.423,19.021,0,12.774,0H0V28.01H5v-11.8h6.246l6.942,11.8h5.831L16.43,15.618C20.132,14.753,23,12.2,23,8.183m-5,.039c0,2.754-2.267,4.367-5.6,4.367H5V3.816h7.4c3.333,0,5.6,1.652,5.6,4.406" transform="translate(564.578 47.445)" fill="#1b2020" stroke="#1b2020" stroke-width="1"/>
    <path id="Pfad_12" data-name="Pfad 12" d="M23,8.183C23,3.423,19.021,0,12.774,0H0V28.01H5v-11.8h6.246l6.942,11.8h5.831L16.43,15.618C20.133,14.753,23,12.2,23,8.183Zm-5,.039c0,2.754-2.267,4.367-5.6,4.367H5V3.816h7.4c3.333,0,5.6,1.652,5.6,4.4Z" transform="translate(564.578 47.445)" fill="none" stroke="#1b2020" stroke-width="1.4"/>
    <path id="Pfad_18" data-name="Pfad 18" d="M14.236,0,0,24.635H4.981L14.236,8.606l1.693,2.929-2.449,4.244h9.872Z" transform="translate(592.689 51.247)" fill="#ff211a" stroke="#ff211a" stroke-width="1"/>
    <path id="Pfad_19" data-name="Pfad 19" d="M10.114,0,7.561,4.422,21.774,29H18.381L16.69,26.073H3.4L0,31.98H28.6Z" transform="translate(601.056 43.9)" fill="#1b2020" stroke="#1b2020" stroke-width="1"/>
  </g>
</svg>
