<svg xmlns="http://www.w3.org/2000/svg" width="14.088" height="19.918" viewBox="0 0 14.088 19.918">
  <path id="Path_40520" data-name="Path 40520" d="M28.044,961.361A7.179,7.179,0,0,0,21,968.648a6.734,6.734,0,0,0,1.108,3.682l5.313,8.6a.729.729,0,0,0,1.245,0l5.313-8.6a6.734,6.734,0,0,0,1.108-3.682A7.179,7.179,0,0,0,28.044,961.361Zm0,1.457a5.7,5.7,0,0,1,5.587,5.83,5.066,5.066,0,0,1-.9,2.915l-4.691,7.591-4.691-7.591a5.066,5.066,0,0,1-.9-2.915A5.7,5.7,0,0,1,28.044,962.818Zm0,3.4a2.186,2.186,0,1,1-2.186,2.186A2.175,2.175,0,0,1,28.044,966.219Z" transform="translate(-21 -961.361)" fill="#1B2020"/>
</svg>
