<svg xmlns="http://www.w3.org/2000/svg" width="26.121" height="14.733" viewBox="0 0 26.121 14.733">
  <path id="Path_40511" data-name="Path 40511" d="M33.759,30.578A1.419,1.419,0,0,0,32.71,29.21L21.555,26.221a3.228,3.228,0,0,0-1.712,0L8.689,29.21a1.417,1.417,0,0,0,0,2.736l3.644.977v5a.914.914,0,0,0,.442.782A15.374,15.374,0,0,0,20.7,40.839a15.374,15.374,0,0,0,7.925-2.133.911.911,0,0,0,.442-.782v-5l2.5-.67v4.339a.912.912,0,0,0,1.823,0V31.535a1.413,1.413,0,0,0,.374-.957ZM27.243,37.4a14.033,14.033,0,0,1-13.089,0V33.41l5.687,1.524a3.228,3.228,0,0,0,1.712,0l5.689-1.524V37.4Zm-6.159-4.222a1.393,1.393,0,0,1-.769,0l-9.689-2.6,9.689-2.6a1.393,1.393,0,0,1,.769,0l9.689,2.6-9.69,2.6Z" transform="translate(-7.64 -26.105)" fill="#1B2020"/>
</svg>
