<svg xmlns="http://www.w3.org/2000/svg" width="23.584" height="15.343" viewBox="0 0 23.584 15.343">
  <path id="Pfad_40430" data-name="Pfad 40430" d="M27.226,21.508H7.361A1.872,1.872,0,0,1,5.5,19.651v-.775a1.858,1.858,0,0,1,1.21-1.745,11.16,11.16,0,0,1,4.617-7.867l.569-.406a1.249,1.249,0,0,1,1.138-1.288l.028,0h2.316l.018-.2a1.317,1.317,0,0,1,1.318-1.206h1.077A1.325,1.325,0,0,1,19.1,7.373l.018.195h2.286l.027,0A1.253,1.253,0,0,1,22.58,8.794l.561.388a11.132,11.132,0,0,1,4.734,7.949,1.858,1.858,0,0,1,1.209,1.744v.773a1.872,1.872,0,0,1-1.857,1.86ZM11.053,11.174a9.811,9.811,0,0,0-3.082,6.537l-.038.589-.59.022a.554.554,0,0,0-.535.555v.771a.559.559,0,0,0,.556.553H27.223a.56.56,0,0,0,.554-.556v-.769a.554.554,0,0,0-.535-.554l-.591-.022-.038-.59a9.817,9.817,0,0,0-3.191-6.636v1.854a1.076,1.076,0,0,1-2.151,0V8.876H20.092l.615,6.862a1.076,1.076,0,0,1-.974,1.167c-.032,0-.065,0-.1,0a1.069,1.069,0,0,1-1.07-.979L17.8,7.482a.01.01,0,0,0-.01-.01H16.719a.019.019,0,0,0-.02.016l-.042.459-.717,7.99a1.071,1.071,0,0,1-1.069.969c-.032,0-.065,0-.1,0a1.078,1.078,0,0,1-.974-1.158v0l.615-6.862H13.2v4.049a1.076,1.076,0,0,1-2.151,0v-.012c0-.344,0-.958,0-1.569Q11.053,11.259,11.053,11.174Z" transform="translate(-5.501 -6.164)" fill="#1B2020"/>
</svg>
