<svg id="instagram-svgrepo-com" xmlns="http://www.w3.org/2000/svg" width="21.158" height="21.158" viewBox="0 0 21.158 21.158">
  <path id="Path_62" data-name="Path 62" d="M11.77,17.541A5.77,5.77,0,1,0,6,11.77,5.77,5.77,0,0,0,11.77,17.541Zm0-1.923A3.847,3.847,0,1,0,7.923,11.77,3.847,3.847,0,0,0,11.77,15.617Z" transform="translate(-1.191 -1.191)" fill="#1b2020" fill-rule="evenodd"/>
  <path id="Path_63" data-name="Path 63" d="M17.962,5a.962.962,0,1,0,.962.962A.962.962,0,0,0,17.962,5Z" transform="translate(-1.613 -1.153)" fill="#ffffff"/>
  <path id="Path_64" data-name="Path 64" d="M1.629,4.151C1,5.385,1,7,1,10.232v2.693c0,3.232,0,4.848.629,6.082a5.77,5.77,0,0,0,2.522,2.522c1.234.629,2.85.629,6.082.629h2.693c3.232,0,4.848,0,6.082-.629a5.77,5.77,0,0,0,2.522-2.522c.629-1.234.629-2.85.629-6.082V10.232c0-3.232,0-4.848-.629-6.082a5.77,5.77,0,0,0-2.522-2.522C17.773,1,16.157,1,12.925,1H10.233C7,1,5.385,1,4.151,1.629A5.77,5.77,0,0,0,1.629,4.151Zm11.3-1.227H10.233c-1.648,0-2.768,0-3.633.072a4.152,4.152,0,0,0-1.575.347A3.847,3.847,0,0,0,3.343,5.024,4.152,4.152,0,0,0,3,6.6c-.071.866-.072,1.986-.072,3.633v2.693c0,1.648,0,2.768.072,3.633a4.152,4.152,0,0,0,.347,1.575,3.847,3.847,0,0,0,1.681,1.681,4.15,4.15,0,0,0,1.575.347c.866.071,1.986.072,3.633.072h2.693c1.648,0,2.768,0,3.633-.072a4.15,4.15,0,0,0,1.575-.347,3.847,3.847,0,0,0,1.681-1.681,4.15,4.15,0,0,0,.347-1.575c.071-.866.072-1.986.072-3.633V10.232c0-1.648,0-2.768-.072-3.633a4.15,4.15,0,0,0-.347-1.575,3.847,3.847,0,0,0-1.681-1.681A4.152,4.152,0,0,0,16.559,3C15.693,2.925,14.573,2.923,12.925,2.923Z" transform="translate(-1 -1)" fill="#ffffff" fill-rule="evenodd"/>
</svg>
