<svg id="instagram-svgrepo-com" xmlns="http://www.w3.org/2000/svg" width="36.078" height="36.078" viewBox="0 0 36.078 36.078">
  <path id="Path_62" data-name="Path 62" d="M15.839,25.679A9.839,9.839,0,1,0,6,15.839,9.839,9.839,0,0,0,15.839,25.679Zm0-3.28a6.56,6.56,0,1,0-6.56-6.56A6.56,6.56,0,0,0,15.839,22.4Z" transform="translate(2.199 2.199)" fill="#1b2020" fill-rule="evenodd"/>
  <path id="Path_63" data-name="Path 63" d="M18.64,5a1.64,1.64,0,1,0,1.64,1.64A1.64,1.64,0,0,0,18.64,5Z" transform="translate(9.238 1.56)" fill="#1b2020"/>
  <path id="Path_64" data-name="Path 64" d="M2.072,6.372C1,8.477,1,11.232,1,16.743v4.592C1,26.845,1,29.6,2.072,31.705a9.839,9.839,0,0,0,4.3,4.3c2.1,1.072,4.86,1.072,10.371,1.072h4.592c5.511,0,8.266,0,10.371-1.072a9.838,9.838,0,0,0,4.3-4.3c1.072-2.1,1.072-4.86,1.072-10.371V16.743c0-5.511,0-8.266-1.072-10.371a9.839,9.839,0,0,0-4.3-4.3C29.6,1,26.845,1,21.335,1H16.743C11.232,1,8.477,1,6.372,2.072A9.839,9.839,0,0,0,2.072,6.372ZM21.335,4.28H16.743c-2.809,0-4.719,0-6.2.123a7.079,7.079,0,0,0-2.686.592A6.56,6.56,0,0,0,4.995,7.861,7.079,7.079,0,0,0,4.4,10.548c-.121,1.476-.123,3.386-.123,6.2v4.592c0,2.809,0,4.719.123,6.2a7.079,7.079,0,0,0,.592,2.686,6.56,6.56,0,0,0,2.867,2.867,7.077,7.077,0,0,0,2.686.592c1.476.121,3.386.123,6.2.123h4.592c2.809,0,4.719,0,6.2-.123a7.077,7.077,0,0,0,2.686-.592,6.56,6.56,0,0,0,2.867-2.867,7.077,7.077,0,0,0,.592-2.686c.121-1.476.123-3.386.123-6.2V16.743c0-2.809,0-4.719-.123-6.2a7.077,7.077,0,0,0-.592-2.686,6.56,6.56,0,0,0-2.867-2.867A7.079,7.079,0,0,0,27.53,4.4C26.054,4.282,24.144,4.28,21.335,4.28Z" transform="translate(-1 -1)" fill="#1b2020" fill-rule="evenodd"/>
</svg>
