<svg id="Page-1" xmlns="http://www.w3.org/2000/svg" width="20.185" height="18.093" viewBox="0 0 20.185 18.093">
  <g id="Dribbble-Light-Preview">
    <g id="icons">
      <path id="linkedin-_161_" data-name="linkedin-[#161]" d="M144.185,7337.089h-4.037v-6.332c0-1.736-.855-2.706-2.388-2.706a2.463,2.463,0,0,0-2.658,2.706v6.332h-4.037v-11.76H135.1v1.323a4.952,4.952,0,0,1,4.121-1.992c2.855,0,4.963,1.562,4.963,4.793v7.637Zm-17.721-13.641a2.237,2.237,0,1,1,2.464-2.227,2.354,2.354,0,0,1-2.464,2.227ZM124,7337.089h5.046v-11.76H124Z" transform="translate(-124 -7318.996)" fill="#ffffff" fill-rule="evenodd"/>
    </g>
  </g>
</svg>
