<svg xmlns="http://www.w3.org/2000/svg" width="54.965" height="55.31" viewBox="0 0 54.965 55.31">
  <g id="layer1" transform="translate(-414.436 -395.747)">
    <g id="g3019" transform="translate(414.436 395.747)">
      <path id="Subtraction_41" data-name="Subtraction 41" d="M50.9,55.31H4.063A4.018,4.018,0,0,1,0,51.35V3.961A4.019,4.019,0,0,1,4.063,0H50.9a4.018,4.018,0,0,1,4.063,3.961V51.35A4.018,4.018,0,0,1,50.9,55.31ZM29.559,21.326h-8.3c.105,2.305,0,24.756,0,24.975h8.3V32.353a5.775,5.775,0,0,1,.273-2.025,5.19,5.19,0,0,1,1.493-2.078,4.268,4.268,0,0,1,2.766-.959,3.654,3.654,0,0,1,3.228,1.565,7.245,7.245,0,0,1,.977,4.082V46.3h8.3V31.98a15.95,15.95,0,0,0-.725-4.993,9.581,9.581,0,0,0-2-3.505,8.982,8.982,0,0,0-6.826-2.744,8.569,8.569,0,0,0-4.979,1.424,9.269,9.269,0,0,0-2.5,2.7Zm-21.2,0h0V46.3h8.3V21.326h-8.3ZM12.566,9.283a4.858,4.858,0,0,0-3.415,1.239A4.173,4.173,0,0,0,7.869,13.6a4.219,4.219,0,0,0,1.249,3.057,4.655,4.655,0,0,0,3.339,1.259h.054a4.837,4.837,0,0,0,3.435-1.259A4.184,4.184,0,0,0,17.208,13.6a4.373,4.373,0,0,0-1.276-3.078A4.717,4.717,0,0,0,12.566,9.283Z" transform="translate(0 0)" fill="#1b2020"/>
    </g>
  </g>
</svg>
