<svg xmlns="http://www.w3.org/2000/svg" width="25.469" height="18.677" viewBox="0 0 25.469 18.677"><path d="M23.073,5H4.4A3.4,3.4,0,0,0,1,8.4V20.282a3.4,3.4,0,0,0,3.4,3.4H23.073a3.4,3.4,0,0,0,3.4-3.4V8.4A3.4,3.4,0,0,0,23.073,5ZM4.4,6.7H23.073a.976.976,0,0,1,.221,0l-8.575,6.113a1.7,1.7,0,0,1-1.978,0L4.192,6.7a.976.976,0,0,1,.2,0ZM24.771,20.282a1.7,1.7,0,0,1-1.7,1.7H4.4a1.7,1.7,0,0,1-1.7-1.7V8.4a1.7,1.7,0,0,1,.11-.594l8.94,6.359a3.353,3.353,0,0,0,3.965,0l8.948-6.367a1.7,1.7,0,0,1,.11.6Z" transform="translate(-1 -5)" fill="#fff"/></svg>