<svg xmlns="http://www.w3.org/2000/svg" width="106.163" height="42.061" viewBox="0 0 106.163 42.061">
  <g id="GB_logo_DIGITAL" transform="translate(0.1)">
    <g id="Group_15694" data-name="Group 15694" transform="translate(64.15 0.148)">
      <path id="Path_40249" data-name="Path 40249" d="M172.113.3H130.2V42.213h41.913Zm-4.931,37.031h-32.15V5.182h32.15v7.347H142.429V29.984h17.456V25.1h-14.99V17.41h22.337V37.331Z" transform="translate(-130.2 -0.3)" fill="#3c4646"/>
    </g>
    <g id="Group_15695" data-name="Group 15695" transform="translate(-0.1)">
      <path id="Path_40250" data-name="Path 40250" d="M8.726,2.367a6.5,6.5,0,0,0-2.712-.493,3.3,3.3,0,0,0-3.5,3.5A2.2,2.2,0,0,0,4.831,7.791a3.683,3.683,0,0,0,.986-.148l.394-1.824H4.732l.345-1.775h3.9L7.888,9.221a12.751,12.751,0,0,1-3.254.394C1.626,9.615-.1,7.84-.1,5.276,0,2.219,1.872,0,6.162,0A12.767,12.767,0,0,1,9.269.444Z" transform="translate(0.1)" fill="#3c4646"/>
      <path id="Path_40251" data-name="Path 40251" d="M22.472.3h2.959c1.775,0,3.9.049,3.9,2.367,0,1.627-1.282,2.219-2.712,2.367v.049c.74.049.986,1.035,1.085,1.627l.641,2.86H25.875L25.382,7.2c-.247-1.233-.3-1.282-1.43-1.282h-.247l-.74,3.7H20.5Zm1.677,3.9h.838c1.085,0,1.923-.247,1.923-1.134,0-.641-.394-.937-1.134-.937H24.593Z" transform="translate(-10.342 -0.152)" fill="#3c4646"/>
      <path id="Path_40252" data-name="Path 40252" d="M44.542,9.615c-3.008,0-4.142-1.874-4.142-3.8C40.4,2.268,42.274,0,45.824,0c3.008,0,4.142,1.874,4.142,3.8C50.015,7.3,48.142,9.615,44.542,9.615Zm1.183-7.791c-1.923,0-2.712,2.219-2.712,3.8,0,1.183.444,2.12,1.726,2.12,1.923,0,2.712-2.219,2.712-3.8C47.451,2.811,47.007,1.824,45.725,1.824Z" transform="translate(-20.43)" fill="#3c4646"/>
      <path id="Path_40253" data-name="Path 40253" d="M65.218,2.124H62.9L63.294.3h7.15L70.05,2.124H67.732L66.154,9.57H63.64Z" transform="translate(-31.835 -0.152)" fill="#3c4646"/>
      <path id="Path_40254" data-name="Path 40254" d="M78.974.3h2.465L80.7,3.85h2.959L84.447.3h2.465L84.989,9.57H82.524l.838-3.994H80.4L79.565,9.57H77.1Z" transform="translate(-39.033 -0.152)" fill="#3c4646"/>
      <path id="Path_40255" data-name="Path 40255" d="M99.322.3h6.558l-.345,1.775h-4.093L101,4h3.9L104.5,5.773h-3.9l-.444,2.12H104.4l-.345,1.775H97.3Z" transform="translate(-49.273 -0.152)" fill="#3c4646"/>
      <path id="Path_40256" data-name="Path 40256" d="M1.923,25.8H6.065c.937,0,2.613.394,2.613,2.12a2.51,2.51,0,0,1-2.416,2.367v.049a1.8,1.8,0,0,1,1.775,1.775c0,1.972-1.677,2.909-3.8,2.909L0,35.119Zm.888,7.544h.641c1.233,0,2.071-.345,2.071-1.233,0-.789-.592-.937-1.726-.937H3.254ZM3.649,29.5h.937c1.035,0,1.627-.394,1.627-1.035,0-.74-.592-.888-1.529-.888H4.043Z" transform="translate(0.049 -13.078)" fill="#3c4646"/>
      <path id="Path_40257" data-name="Path 40257" d="M22.323,25.8h3.106l1.529,9.27H24.443L24.2,33.1H20.6L19.512,35.07H16.8Zm1.233,1.923h0l-1.972,3.649H24Z" transform="translate(-8.467 -13.078)" fill="#3c4646"/>
      <path id="Path_40258" data-name="Path 40258" d="M49.781,30.139c-.592,2.959-1.331,5.128-4.734,5.128-2.071,0-3.748-.74-3.748-2.909a8.047,8.047,0,0,1,.2-1.775L42.533,25.8H45.1l-1.134,5.276a6.047,6.047,0,0,0-.2,1.035A1.242,1.242,0,0,0,45.1,33.443c1.578,0,1.874-1.923,2.17-3.4l.937-4.191h2.465Z" transform="translate(-20.886 -13.078)" fill="#3c4646"/>
    </g>
    <g id="Group_15696" data-name="Group 15696" transform="translate(80.373 19.527)">
      <path id="Path_40259" data-name="Path 40259" d="M166.009,40.44a2.389,2.389,0,0,0-.888-.148,1.109,1.109,0,0,0-1.183,1.183.725.725,0,0,0,.789.789.963.963,0,0,0,.345-.049l.148-.592h-.493l.1-.592h1.282l-.345,1.726a4.107,4.107,0,0,1-1.085.148,1.416,1.416,0,0,1-1.578-1.43c0-1.035.641-1.775,2.071-1.775a3.5,3.5,0,0,1,1.035.148Z" transform="translate(-163.1 -39.651)" fill="#3c4646"/>
      <path id="Path_40260" data-name="Path 40260" d="M170.69,39.7h.986c.592,0,1.282,0,1.282.789,0,.542-.444.74-.888.789h0c.247,0,.345.345.345.542l.247.937h-.838l-.148-.789c-.1-.394-.1-.444-.493-.444h-.1l-.247,1.233H170Zm.542,1.282h.3c.345,0,.641-.1.641-.394,0-.247-.148-.3-.394-.3h-.394Z" transform="translate(-166.598 -39.651)" fill="#3c4646"/>
      <path id="Path_40261" data-name="Path 40261" d="M178.281,42.805a1.242,1.242,0,0,1-1.381-1.282,1.714,1.714,0,0,1,1.824-1.923,1.242,1.242,0,0,1,1.381,1.282A1.761,1.761,0,0,1,178.281,42.805Zm.345-2.613c-.641,0-.888.74-.888,1.282,0,.394.148.69.592.69.641,0,.888-.74.888-1.282C179.218,40.537,179.07,40.192,178.626,40.192Z" transform="translate(-170.095 -39.6)" fill="#3c4646"/>
      <path id="Path_40262" data-name="Path 40262" d="M185.289,40.292H184.5l.148-.592h2.367l-.148.592h-.789l-.542,2.465h-.789Z" transform="translate(-173.948 -39.651)" fill="#3c4646"/>
      <path id="Path_40263" data-name="Path 40263" d="M190.041,39.7h.838l-.247,1.183h.986l.247-1.183h.838l-.641,3.106h-.838l.3-1.331h-.986l-.3,1.331H189.4Z" transform="translate(-176.432 -39.651)" fill="#3c4646"/>
      <path id="Path_40264" data-name="Path 40264" d="M197.041,39.7h2.17l-.1.592h-1.381l-.148.641h1.282l-.148.592h-1.282l-.148.69h1.43l-.1.592H196.4Z" transform="translate(-179.98 -39.651)" fill="#3c4646"/>
    </g>
    <g id="Group_15697" data-name="Group 15697" transform="translate(-0.001 24.951)">
      <rect id="Rectangle_34410" data-name="Rectangle 34410" width="59.221" height="4.882" fill="#ffcd00"/>
    </g>
  </g>
</svg>
