<svg id="Group_16230" data-name="Group 16230" xmlns="http://www.w3.org/2000/svg" width="32.148" height="41.078" viewBox="0 0 32.148 41.078">
  <path id="Path_40523" data-name="Path 40523" d="M4.068,0A2.241,2.241,0,0,0,1.841,2.236V38.841a2.241,2.241,0,0,0,2.228,2.236H31.756a2.245,2.245,0,0,0,2.233-2.236V9.082a.642.642,0,0,0-.186-.45L25.355.189A.642.642,0,0,0,25.149.05h0A.642.642,0,0,0,24.9,0Zm0,1.284H24.261V7.491a2.243,2.243,0,0,0,2.231,2.235H32.7V38.841a.934.934,0,0,1-.948.951H4.068a.93.93,0,0,1-.943-.951V2.236A.931.931,0,0,1,4.068,1.284Zm21.476.905.708.708,5.542,5.546h-5.3a.934.934,0,0,1-.948-.951ZM7.465,14.057a.642.642,0,1,0,0,1.284H27.791a.642.642,0,1,0,0-1.284Zm0,5.751a.642.642,0,1,0,0,1.285H27.791a.642.642,0,1,0,0-1.285Zm0,5.753a.642.642,0,1,0,0,1.284H27.791a.642.642,0,1,0,0-1.284Z" transform="translate(-1.841 0)" fill="#1b2020" fill-rule="evenodd"/>
</svg>
