<svg xmlns="http://www.w3.org/2000/svg" width="39.164" height="50.685" viewBox="0 0 39.164 50.685">
  <g id="Group_16410" data-name="Group 16410" transform="translate(0 0.001)">
    <path id="Path_40676" data-name="Path 40676" d="M55.612,50.074l-7.626,7.66a5.8,5.8,0,0,1-4.082,1.7l-20.019,0a5.767,5.767,0,0,1-5.759-5.76V14.509a5.767,5.767,0,0,1,5.759-5.76H51.53a5.767,5.767,0,0,1,5.759,5.76v31.5a5.721,5.721,0,0,1-1.677,4.063Zm-2.246-1.008H48.074a1.152,1.152,0,0,0-1.152,1.152v5.32Zm1.62-34.557a3.46,3.46,0,0,0-3.456-3.456H23.885a3.46,3.46,0,0,0-3.456,3.456V53.674a3.46,3.46,0,0,0,3.456,3.456H43.9a3.4,3.4,0,0,0,.715-.079V50.218a3.46,3.46,0,0,1,3.456-3.456H54.9a3.4,3.4,0,0,0,.089-.751Z" transform="translate(-18.125 -8.75)"/>
    <path id="Path_40678" data-name="Path 40678" d="M53.565,51.875H30.527a1.152,1.152,0,0,0,0,2.3H53.565a1.152,1.152,0,1,0,0-2.3Z" transform="translate(-22.682 -24.107)"/>
    <path id="Path_40679" data-name="Path 40679" d="M53.565,63.125H30.527a1.152,1.152,0,1,0,0,2.3H53.565a1.152,1.152,0,1,0,0-2.3Z" transform="translate(-22.682 -29.993)"/>
    <path id="Path_40681" data-name="Path 40681" d="M32.831,35.4h6.911A3.46,3.46,0,0,0,43.2,31.948a5.749,5.749,0,0,0-4.192-5.515,4.608,4.608,0,1,0-5.438,0,5.751,5.751,0,0,0-4.192,5.515A3.46,3.46,0,0,0,32.831,35.4Zm3.456-14.975a2.3,2.3,0,1,1-2.3,2.3A2.307,2.307,0,0,1,36.286,20.429Zm-1.152,8.063h2.3a3.46,3.46,0,0,1,3.456,3.456A1.152,1.152,0,0,1,39.742,33.1H32.831a1.152,1.152,0,0,1-1.152-1.152A3.46,3.46,0,0,1,35.135,28.492Z" transform="translate(-9.73 -12.365)"/>
  </g>
</svg>
