<svg xmlns="http://www.w3.org/2000/svg" width="38.329" height="47.723" viewBox="0 0 38.329 47.723">
  <path id="Path_40683" data-name="Path 40683" d="M16.95,30.059a1.13,1.13,0,1,0,0,2.26h9.794A9.961,9.961,0,0,1,29,30.06H16.95Zm0-8.66a1.13,1.13,0,1,0,0,2.26H31.634a1.13,1.13,0,0,0,0-2.26Zm0-8.66a1.13,1.13,0,1,0,0,2.26h7.53a1.13,1.13,0,0,0,0-2.26ZM29.232,5.258v4.891c0,1.6,2.358,3.577,3.863,3.674a1.686,1.686,0,0,1,.656.188H37.66V28.58a10.075,10.075,0,0,1,2.259.985l.008-18.625L32,2.969,12.9,3C11.021,3,8.762,5.54,8.667,7.328v30.4c0,1.6,2.636,4.425,4.141,4.331H25.652a9.76,9.76,0,0,1-.658-2.259h-11.9c-.846,0-2.164-1.506-2.164-2.353V7.611c-.093-.941,1.412-2.541,2.353-2.353H29.232Zm8.426,6.495H34.036a2.818,2.818,0,0,1-2.544-2.071V5.657l6.167,5.814Zm2.124,33.232,5.373,5.373a1.066,1.066,0,1,0,1.506-1.507l-5.327-5.328a8.434,8.434,0,1,0-6.5,3.1A8.371,8.371,0,0,0,39.783,44.984Zm1.264-6.831a6.329,6.329,0,0,1-6.212,6.212,6.213,6.213,0,1,1,6.212-6.212Z" transform="translate(-8.667 -2.969)" fill-rule="evenodd"/>
</svg>
