<svg xmlns="http://www.w3.org/2000/svg" width="31.616" height="39.144" viewBox="0 0 31.616 39.144">
  <g id="noun-document-7309757" transform="translate(304.633 -273.5)">
    <path id="Path_40324" data-name="Path 40324" d="M32.222,0A.116.116,0,0,0,32.2,0H12.552A2.688,2.688,0,0,0,9.869,2.682V35.46a2.691,2.691,0,0,0,2.683,2.683H37.8a2.691,2.691,0,0,0,2.683-2.683V8.259l0-.018a.592.592,0,0,0-.039-.2c0-.006,0-.013-.007-.019a.618.618,0,0,0-.125-.188L32.643.175A.6.6,0,0,0,32.221,0ZM12.553,1.195H31.627v4.98a2.687,2.687,0,0,0,2.683,2.679h4.981V35.46A1.475,1.475,0,0,1,37.8,36.952H12.553a1.475,1.475,0,0,1-1.491-1.491V2.682a1.471,1.471,0,0,1,1.491-1.487Zm20.267.845,1.332,1.329,4.3,4.293H34.311a1.472,1.472,0,0,1-1.491-1.487ZM17.167,14.8a.6.6,0,1,0,0,1.193H33.184a.6.6,0,0,0,.425-.176.589.589,0,0,0,.174-.425.6.6,0,0,0-.6-.593Zm0,6.376h0a.6.6,0,1,0,0,1.192H33.184a.6.6,0,0,0,.425-1.016.6.6,0,0,0-.425-.176Zm0,6.374h0a.6.6,0,0,0-.6.6.6.6,0,0,0,.6.595H33.184a.6.6,0,0,0,.6-.595.6.6,0,0,0-.6-.6Z" transform="translate(-314 274)" fill="#1b2020" stroke="#1b2020" stroke-width="1"/>
  </g>
</svg>
