<svg xmlns="http://www.w3.org/2000/svg" width="46.34" height="50.625" viewBox="0 0 46.34 50.625">
  <g id="Group_15809" data-name="Group 15809" transform="translate(-913.83 -2700)">
    <g id="noun-pen-1047190" transform="translate(866.529 2681.26)">
      <g id="Group_15808" data-name="Group 15808" transform="translate(47.301 18.74)">
        <path id="Path_40321" data-name="Path 40321" d="M45.471,957.05a1.13,1.13,0,0,1,.768.332c2.768,2.785,5.526,5.535,8.309,8.309a1.161,1.161,0,0,1,0,1.589l-36.013,36.013a4.782,4.782,0,0,1-3.229,1.379,3.74,3.74,0,0,1-3.195.384l-1.973,1.03a1.117,1.117,0,0,1-1.5-1.5l1.03-1.99a3.693,3.693,0,0,1,.384-3.177,4.762,4.762,0,0,1,1.379-3.23L46.658,960.96l-1.2-1.2L34.613,970.6a1.117,1.117,0,1,1-1.571-1.588l11.626-11.626a1.132,1.132,0,0,1,.8-.332Zm2.758,5.481-7.506,7.506L44.686,974l7.506-7.506Zm-9.1,9.1L13,997.759v.017a2.514,2.514,0,0,0-.733,1.938,1.129,1.129,0,0,1-.244.768,1.5,1.5,0,0,0-.122,1.658,1.123,1.123,0,0,1,.122.559,1.127,1.127,0,0,1,.576.122,1.468,1.468,0,0,0,1.641-.122,1.13,1.13,0,0,1,.768-.262,2.526,2.526,0,0,0,1.955-.716L43.1,975.589Z" transform="translate(-8.523 -957.05)" fill="#1b2020" fill-rule="evenodd"/>
        <path id="Path_40322" data-name="Path 40322" d="M45.447,1024.779a19.048,19.048,0,0,0-6.817.957,2.744,2.744,0,0,0-1.351.988,1.932,1.932,0,0,0,.053,1.985c.74,1.036,1.951,1.488,4.084,2.148a30.437,30.437,0,0,1,5.251,2.066,5.666,5.666,0,0,1,1,.694,5.094,5.094,0,0,1-1.121.455,25.848,25.848,0,0,1-4.107.708,160.178,160.178,0,0,1-17.567.535,1.117,1.117,0,0,0-.022,2.235,161.521,161.521,0,0,0,17.83-.549,27.47,27.47,0,0,0,4.482-.782,4.5,4.5,0,0,0,2.448-1.325,1.972,1.972,0,0,0,.442-1.3,2.137,2.137,0,0,0-.452-1.166,5.539,5.539,0,0,0-1.847-1.456,31.4,31.4,0,0,0-5.679-2.249,12.863,12.863,0,0,1-2.4-.995,25.261,25.261,0,0,1,7.942-.644,1.117,1.117,0,0,0,.138-2.23c-.776-.048-1.55-.074-2.308-.076Z" transform="translate(-15.242 -986.944)" fill="#1b2020" fill-rule="evenodd"/>
      </g>
    </g>
  </g>
</svg>
