<svg xmlns="http://www.w3.org/2000/svg" width="22.459" height="22.459" viewBox="0 0 22.459 22.459">
  <path id="Path_40661" data-name="Path 40661" d="M23.338,6.12H21.092V3.874a.749.749,0,1,0-1.5,0V6.12H9.114V3.874a.749.749,0,1,0-1.5,0V6.12H5.371A2.248,2.248,0,0,0,3.125,8.365V23.338a2.248,2.248,0,0,0,2.246,2.246H19.723a2.232,2.232,0,0,0,1.588-.658l3.615-3.615a2.228,2.228,0,0,0,.658-1.587V8.365A2.248,2.248,0,0,0,23.338,6.12ZM5.371,7.617H23.338a.748.748,0,0,1,.749.749V11.36H4.622V8.365A.748.748,0,0,1,5.371,7.617ZM4.622,23.338V12.857H24.087v5.989H21.092a2.248,2.248,0,0,0-2.246,2.246v2.995H5.371A.748.748,0,0,1,4.622,23.338Zm15.721.439V21.092a.748.748,0,0,1,.749-.749h2.685Z" transform="translate(-3.125 -3.125)" fill="#1b2020"/>
</svg>
