<svg xmlns="http://www.w3.org/2000/svg" width="42.55" height="24" viewBox="0 0 42.55 24">
  <g id="noun-education-7385399" transform="translate(-3.836 -26.105)">
    <path id="Path_40494" data-name="Path 40494" d="M50.186,33.39a2.311,2.311,0,0,0-1.708-2.228l-18.17-4.869a5.259,5.259,0,0,0-2.789,0L9.348,31.162a2.307,2.307,0,0,0,0,4.457l5.935,1.591v8.148A1.488,1.488,0,0,0,16,46.631,25.044,25.044,0,0,0,28.912,50.1a25.043,25.043,0,0,0,12.909-3.474,1.484,1.484,0,0,0,.72-1.273V37.21l4.068-1.091v7.067a1.485,1.485,0,0,0,2.97,0V34.95a2.3,2.3,0,0,0,.61-1.559ZM39.572,44.5a22.233,22.233,0,0,1-10.661,2.638A22.232,22.232,0,0,1,18.25,44.5V38l9.264,2.483a5.259,5.259,0,0,0,2.789,0L39.57,38V44.5ZM29.539,37.62a2.269,2.269,0,0,1-1.253,0L12.5,33.39l15.783-4.229a2.269,2.269,0,0,1,1.253,0L45.322,33.39,29.537,37.62Z" transform="translate(-3.803 0)" fill="#1b2020"/>
  </g>
</svg>
