<svg xmlns="http://www.w3.org/2000/svg" width="27.605" height="26.117" viewBox="0 0 27.605 26.117">
  <g id="noun-reload-4763826" transform="translate(29.095 -4.15) rotate(87)">
    <g id="Group_16102" data-name="Group 16102" transform="translate(3.999 3)">
      <path id="Path_40470" data-name="Path 40470" d="M27.222,3a1.55,1.55,0,0,1,1.539,1.369l.01.181V12.3A1.55,1.55,0,0,1,27.4,13.837l-.181.01H19.474a1.55,1.55,0,0,1-.181-3.089l.181-.01H23.33a9.311,9.311,0,1,0,1.734,9.569q.165-.426.288-.866a1.55,1.55,0,0,1,2.985.833q-.164.586-.384,1.154a12.4,12.4,0,1,1-2.281-12.72V4.55A1.55,1.55,0,0,1,27.041,3.01Z" transform="translate(-3.999 -3)" fill="#fff" fill-rule="evenodd"/>
    </g>
  </g>
</svg>
