<svg xmlns="http://www.w3.org/2000/svg" width="29" height="33.296" viewBox="0 0 29 33.296">
  <g id="noun-file-upload-4691942" transform="translate(-24 -19)">
    <g id="Group_16486" data-name="Group 16486" transform="translate(24 19)">
      <path id="Path_40691" data-name="Path 40691" d="M44.622,20.88a5.992,5.992,0,0,0-2.148-1.5c-.054,0-.107-.054-.161-.054A5.532,5.532,0,0,0,40.433,19H29.585A5.616,5.616,0,0,0,24,24.585V46.657A5.627,5.627,0,0,0,29.585,52.3H47.361A5.627,5.627,0,0,0,53,46.711V32.319a5.412,5.412,0,0,0-1.45-3.759Zm-1.557,1.45,6.874,7.68H45.481a2.407,2.407,0,0,1-2.417-2.417Zm7.787,24.381a3.461,3.461,0,0,1-3.437,3.437H29.585a3.461,3.461,0,0,1-3.437-3.437V24.585a3.461,3.461,0,0,1,3.437-3.437H40.433a1.487,1.487,0,0,1,.483.054v6.444a4.561,4.561,0,0,0,4.565,4.565h5.37v14.5Z" transform="translate(-24 -19)" fill="#1b2020"/>
      <path id="Path_40692" data-name="Path 40692" d="M41.826,47.122l2.47-2.47v5.8a1.074,1.074,0,1,0,2.148,0v-5.8l2.47,2.47a1.038,1.038,0,0,0,1.5,0,1.038,1.038,0,0,0,0-1.5l-4.3-4.3a1.038,1.038,0,0,0-1.5,0l-4.3,4.3a1.063,1.063,0,1,0,1.5,1.5Z" transform="translate(-31.407 -29.185)" fill="#1b2020"/>
      <path id="Path_40693" data-name="Path 40693" d="M49.726,63H40.274a1.074,1.074,0,1,0,0,2.148H49.78a1.077,1.077,0,0,0,1.074-1.074A1.125,1.125,0,0,0,49.726,63Z" transform="translate(-31.037 -39.37)" fill="#1b2020"/>
    </g>
  </g>
</svg>
