<svg xmlns="http://www.w3.org/2000/svg" width="22.908" height="14.804" viewBox="0 0 22.908 14.804">
  <path id="Path_40430" data-name="Path 40430" d="M27.014,17.586a10.307,10.307,0,0,0-4.423-7.818V12.91a.415.415,0,0,1-.83,0V8.918a.584.584,0,0,0-.535-.623H19.255l.668,7.449a.414.414,0,1,1-.825.074l-.751-8.3a.653.653,0,0,0-.656-.6H16.641a.659.659,0,0,0-.66.6l-.033.365-.008.083-.705,7.855a.414.414,0,0,1-.825-.074L15.077,8.3h-2a.582.582,0,0,0-.531.623V12.91a.415.415,0,0,1-.83,0c0-.677,0-2.41,0-3.066A10.334,10.334,0,0,0,7.4,17.586a1.189,1.189,0,0,0-1.145,1.187v.759a1.191,1.191,0,0,0,1.186,1.186H26.973a1.191,1.191,0,0,0,1.186-1.186v-.759a1.189,1.189,0,0,0-1.145-1.187Z" transform="translate(-5.751 -6.414)" fill="none" stroke="#1b2020" stroke-width="1"/>
</svg>
