<svg xmlns="http://www.w3.org/2000/svg" width="54.959" height="31.534" viewBox="0 0 54.959 31.534">
  <g id="noun-talk-7234988" transform="translate(-7.812 -25.796)">
    <path id="Path_40325" data-name="Path 40325" d="M29.181,44.1H27.146a1.056,1.056,0,0,0-.722.305l-7.418,7.418V45.12A1.021,1.021,0,0,0,17.987,44.1a8.151,8.151,0,0,1-8.14-8.14,8.147,8.147,0,0,1,8.14-8.14H46.479a8.125,8.125,0,0,1,8.09,7.235,1.018,1.018,0,0,0,2.025-.214,10.137,10.137,0,0,0-10.1-9.046h-28.5A10.2,10.2,0,0,0,7.812,35.972,10.181,10.181,0,0,0,16.969,46.1v8.191a1.033,1.033,0,0,0,1.018,1.018,1.025,1.025,0,0,0,.722-.3l8.863-8.863H29.19a1.018,1.018,0,1,0,0-2.035Z" fill="#3c4646"/>
    <path id="Path_40326" data-name="Path 40326" d="M75.839,51.654a7.131,7.131,0,0,0-7.123-7.123H52.435a7.139,7.139,0,0,0-7.123,7.123,7.131,7.131,0,0,0,7.123,7.123H63.212L68,63.57a1.024,1.024,0,0,0,.722.3.853.853,0,0,0,.387-.081,1.02,1.02,0,0,0,.631-.936V58.7a7.126,7.126,0,0,0,6.105-7.041Zm-7.123,5.088A1.021,1.021,0,0,0,67.7,57.759v2.635l-3.348-3.348a.972.972,0,0,0-.336-.224,1.013,1.013,0,0,0-.387-.081H52.435a5.088,5.088,0,0,1,0-10.175H68.716a5.088,5.088,0,0,1,0,10.175Z" transform="translate(-13.079 -6.534)" fill="#3c4646"/>
    <path id="Path_40327" data-name="Path 40327" d="M68.236,53.906h-.01a1.023,1.023,0,1,0,.01,0Z" transform="translate(-20.719 -9.804)" fill="#3c4646"/>
    <path id="Path_40328" data-name="Path 40328" d="M58.861,53.906h-.01a1.023,1.023,0,1,0,.01,0Z" transform="translate(-17.449 -9.804)" fill="#3c4646"/>
    <path id="Path_40329" data-name="Path 40329" d="M77.611,53.906H77.6a1.023,1.023,0,1,0,.01,0Z" transform="translate(-23.989 -9.804)" fill="#3c4646"/>
  </g>
</svg>
