<svg xmlns="http://www.w3.org/2000/svg" width="37.505" height="42.614" viewBox="0 0 37.505 42.614">
  <g id="noun-documents-7089682" transform="translate(-11.496 -6.25)">
    <path id="Path_40697" data-name="Path 40697" d="M27.831,10.007a1.01,1.01,0,0,1,.974-.713H51.787a1.028,1.028,0,0,1,1.02,1.035v28.08a1.009,1.009,0,0,1-.713.974,1.522,1.522,0,0,0,.424,2.983,1.485,1.485,0,0,0,.424-.061,4.068,4.068,0,0,0,2.909-3.9V10.329A4.076,4.076,0,0,0,51.787,6.25H28.805a4.068,4.068,0,0,0-3.9,2.909,1.521,1.521,0,0,0,1.037,1.885,1.505,1.505,0,0,0,1.383-.316,1.473,1.473,0,0,0,.5-.721Z" transform="translate(-6.85 0)" fill="#1b2020"/>
    <path id="Path_40698" data-name="Path 40698" d="M38.547,19.355H15.571A4.08,4.08,0,0,0,11.5,23.43V51.512a4.08,4.08,0,0,0,4.075,4.075H38.549a4.08,4.08,0,0,0,4.075-4.075l0-28.082a4.08,4.08,0,0,0-4.075-4.075Zm0,33.188H15.571a1.032,1.032,0,0,1-1.031-1.031V23.43A1.032,1.032,0,0,1,15.571,22.4H38.549A1.032,1.032,0,0,1,39.58,23.43V51.512a1.035,1.035,0,0,1-1.033,1.031Z" transform="translate(0 -6.722)" fill="#1b2020"/>
    <path id="Path_40699" data-name="Path 40699" d="M41.442,53.426H26.124a1.522,1.522,0,0,0,0,3.044H41.442a1.522,1.522,0,1,0,0-3.044Z" transform="translate(-6.723 -24.2)" fill="#1b2020"/>
    <path id="Path_40700" data-name="Path 40700" d="M26.124,40.747h7.659a1.522,1.522,0,1,0,0-3.044H26.124a1.522,1.522,0,1,0,0,3.044Z" transform="translate(-6.723 -16.135)" fill="#1b2020"/>
    <path id="Path_40701" data-name="Path 40701" d="M41.442,69.152H26.124a1.522,1.522,0,0,0,0,3.044H41.442a1.522,1.522,0,0,0,0-3.044Z" transform="translate(-6.723 -32.267)" fill="#1b2020"/>
  </g>
</svg>
