<svg xmlns="http://www.w3.org/2000/svg" width="18.388" height="18.848" viewBox="0 0 18.388 18.848">
  <g id="noun-calendar-4547052" transform="translate(0.001)">
    <path id="Path_40592" data-name="Path 40592" d="M8.436,2.419a.919.919,0,1,0-1.839,0v.465c-.456.007-.861.023-1.218.061a3.717,3.717,0,0,0-1.794.587,3.678,3.678,0,0,0-.931.931,3.717,3.717,0,0,0-.587,1.794C2.006,6.839,2,7.548,2,8.4v5.581a25.249,25.249,0,0,0,.109,3.084,3.644,3.644,0,0,0,.968,2.21,3.644,3.644,0,0,0,2.21.968,25.236,25.236,0,0,0,3.084.109h5.646a25.238,25.238,0,0,0,3.084-.109,3.644,3.644,0,0,0,2.21-.968,3.644,3.644,0,0,0,.968-2.21,25.258,25.258,0,0,0,.109-3.084V8.4c0-.848-.006-1.557-.066-2.137a3.717,3.717,0,0,0-.587-1.794,3.678,3.678,0,0,0-.931-.931,3.717,3.717,0,0,0-1.794-.587c-.357-.037-.762-.054-1.218-.061V2.419a.919.919,0,1,0-1.839,0v.46H8.436ZM18.549,8.4c0-.861-.006-1.47-.056-1.946a1.935,1.935,0,0,0-.271-.939,1.838,1.838,0,0,0-.465-.466,1.935,1.935,0,0,0-.939-.271c-.286-.03-.62-.044-1.027-.05v.454a.919.919,0,0,1-1.839,0v-.46H8.436v.46a.919.919,0,0,1-1.839,0V4.724c-.407.007-.741.021-1.027.05a1.935,1.935,0,0,0-.939.271,1.839,1.839,0,0,0-.466.466,1.935,1.935,0,0,0-.271.939c-.05.476-.056,1.085-.056,1.946ZM3.839,10.234v3.678a24.543,24.543,0,0,0,.093,2.9,1.853,1.853,0,0,0,.446,1.154,1.853,1.853,0,0,0,1.154.446,24.541,24.541,0,0,0,2.9.093h5.516a24.542,24.542,0,0,0,2.9-.093,1.853,1.853,0,0,0,1.154-.446,1.853,1.853,0,0,0,.446-1.154,24.541,24.541,0,0,0,.093-2.9V10.234Z" transform="translate(-2.001 -1.5)" fill-rule="evenodd"/>
  </g>
</svg>
