<svg xmlns="http://www.w3.org/2000/svg" width="31.007" height="37.353" viewBox="0 0 31.007 37.353">
  <g id="Group_15809" data-name="Group 15809" transform="translate(-921.497 -2710.223)">
    <g id="noun-shield-check-6177671" transform="translate(899.637 2694.123)">
      <g id="Group_15818" data-name="Group 15818" transform="translate(21.86 16.101)">
        <path id="Path_40330" data-name="Path 40330" d="M37.171,53.448c.028,0,.061.006.088.006h.215a.474.474,0,0,0,.088-.006c12.4-.992,15.255-14.572,15.283-14.7a.949.949,0,0,0,.022-.215V21.422A1.091,1.091,0,0,0,52.5,20.6a1.13,1.13,0,0,0-.859-.275c-7.581.87-13.371-3.9-13.459-3.967a1.1,1.1,0,0,0-.815-.253,1.111,1.111,0,0,0-.821.253,19.384,19.384,0,0,1-13.454,3.967,1.115,1.115,0,0,0-.859.275,1.091,1.091,0,0,0-.369.821v17.1a.949.949,0,0,0,.022.215C21.91,38.881,24.769,52.457,37.171,53.448ZM24.064,22.618a21.606,21.606,0,0,0,13.3-4.1,21.592,21.592,0,0,0,13.3,4.1v15.8C50.387,39.658,47.715,50.4,37.429,51.25h-.121c-10.291-.854-12.964-11.6-13.233-12.837v-15.8Z" transform="translate(-21.86 -16.101)" fill="#3c4646"/>
        <path id="Path_40331" data-name="Path 40331" d="M40.672,51.794a1.1,1.1,0,0,0,.793.364h.028a1.114,1.114,0,0,0,.788-.331l9.239-9.4a1.1,1.1,0,0,0-1.576-1.548l-8.418,8.573-3.19-3.554A1.1,1.1,0,1,0,36.7,47.364Z" transform="translate(-28.397 -27.079)" fill="#3c4646"/>
      </g>
    </g>
  </g>
</svg>
