<svg xmlns="http://www.w3.org/2000/svg" width="10.494" height="14.837" viewBox="0 0 10.494 14.837">
  <path id="Path_40508" data-name="Path 40508" d="M26.247,961.361A5.348,5.348,0,0,0,21,966.789a5.016,5.016,0,0,0,.826,2.742l3.958,6.406a.543.543,0,0,0,.927,0l3.958-6.406a5.016,5.016,0,0,0,.826-2.742A5.348,5.348,0,0,0,26.247,961.361Zm0,1.086a4.247,4.247,0,0,1,4.161,4.342,3.773,3.773,0,0,1-.667,2.171l-3.494,5.654-3.494-5.654a3.773,3.773,0,0,1-.667-2.171A4.247,4.247,0,0,1,26.247,962.447Zm0,2.533a1.628,1.628,0,1,1-1.628,1.628A1.62,1.62,0,0,1,26.247,964.98Z" transform="translate(-21 -961.361)" fill="#1b2020"/>
</svg>
