<svg xmlns="http://www.w3.org/2000/svg" width="15.59" height="15.59" viewBox="0 0 15.59 15.59">
  <g id="noun-time-7341970" transform="translate(-20 -20)">
    <path id="Path_40509" data-name="Path 40509" d="M27.795,35.59A7.795,7.795,0,1,0,20,27.795,7.8,7.8,0,0,0,27.795,35.59Zm0-14.55a6.756,6.756,0,1,1-6.756,6.756A6.762,6.762,0,0,1,27.795,21.039Z" fill="#1b2020"/>
    <path id="Path_40510" data-name="Path 40510" d="M47.559,39.938H49.9a.52.52,0,0,0,.512-.608.54.54,0,0,0-.54-.431h-2.31a.521.521,0,0,1-.52-.52v-2.83a.537.537,0,0,0-.431-.54.521.521,0,0,0-.608.512v2.858a1.561,1.561,0,0,0,1.559,1.559Z" transform="translate(-19.245 -11.104)" fill="#1b2020"/>
  </g>
</svg>
