<svg xmlns="http://www.w3.org/2000/svg" width="396.5" height="505" viewBox="0 0 396.5 505"><path d="M206.5,505a208.024,208.024,0,0,1-41.617-4.2,205.37,205.37,0,0,1-73.839-31.072,207.1,207.1,0,0,1-74.816-90.854A205.454,205.454,0,0,1,4.2,340.117,208.024,208.024,0,0,1,0,298.5v-92a208.024,208.024,0,0,1,4.2-41.617A205.37,205.37,0,0,1,35.267,91.044a207.1,207.1,0,0,1,90.854-74.816A205.454,205.454,0,0,1,164.883,4.2,208.024,208.024,0,0,1,206.5,0a206.753,206.753,0,0,1,190,125.48,205.5,205.5,0,0,0-12.232,39.054A207.984,207.984,0,0,0,380,206.5v92a207.985,207.985,0,0,0,4.268,41.965A205.5,205.5,0,0,0,396.5,379.52,206.544,206.544,0,0,1,206.5,505Z" transform="translate(0 0)"/></svg>