<svg xmlns="http://www.w3.org/2000/svg" width="31.826" height="31.822" viewBox="0 0 31.826 31.822">
  <g id="noun-phone-7377179" transform="translate(0.501 0.51)">
    <path id="Path_40206" data-name="Path 40206" d="M15.279,29.834c.113-.113.226-.23.34-.343a14.155,14.155,0,0,1,1.1-1.043,3.217,3.217,0,0,1,4.257.03,6.73,6.73,0,0,1,.518.488l.058.058c.6.6,1.193,1.2,1.8,1.8l.172-.09c.413-.215.808-.413,1.166-.643a23.064,23.064,0,0,0,5.565-5.2,12.6,12.6,0,0,0,1.588-2.509l-.44-.437c-.558-.555-1.135-1.123-1.7-1.705a3.251,3.251,0,0,1,0-4.807c1-1.023,2.021-2.044,3.016-3.028l.847-.838a3.476,3.476,0,0,1,1.506-.905,3.253,3.253,0,0,1,3.316.908c.3.285.585.581.873.873.433.44.843.858,1.276,1.253a5.1,5.1,0,0,1,1.786,4.054,11.721,11.721,0,0,1-.675,3.914,28.747,28.747,0,0,1-5.22,9.127,32.431,32.431,0,0,1-12.365,9.349,13.991,13.991,0,0,1-5.005,1.193c-.1,0-.191,0-.285,0a5.156,5.156,0,0,1-3.726-1.413c-.811-.788-1.611-1.608-2.388-2.4l-.12-.125a3.445,3.445,0,0,1-1.006-2A3.346,3.346,0,0,1,12.6,32.52c.89-.9,1.783-1.786,2.681-2.676ZM13.465,35.14a1.562,1.562,0,0,0,.468.885l.125.125c.765.785,1.556,1.6,2.349,2.364a3.256,3.256,0,0,0,2.576.858A12.089,12.089,0,0,0,23.3,38.33,30.43,30.43,0,0,0,34.92,29.536,26.787,26.787,0,0,0,39.8,21.026a9.928,9.928,0,0,0,.573-3.309v-.04a3.175,3.175,0,0,0-1.148-2.548c-.476-.43-.925-.885-1.358-1.326-.277-.28-.555-.565-.838-.838A1.451,1.451,0,0,0,36,12.47a1.4,1.4,0,0,0-.395.062,1.515,1.515,0,0,0-.668.413l-.847.843c-.988.98-2.009,1.994-2.993,3.009a1.335,1.335,0,0,0,.008,2.091c.543.562,1.113,1.123,1.663,1.67l.565.562a1.416,1.416,0,0,1,.355,1.9,14.168,14.168,0,0,1-1.916,3.082,25.025,25.025,0,0,1-6.04,5.627c-.44.28-.893.515-1.331.738-.187.1-.375.191-.562.293a1.3,1.3,0,0,1-1.638-.32c-.678-.683-1.353-1.361-2.033-2.041l-.058-.058c-.133-.133-.262-.262-.386-.363a1.275,1.275,0,0,0-1.768-.027c-.323.27-.633.581-.956.908-.117.12-.238.242-.36.36q-1.34,1.328-2.669,2.664a1.407,1.407,0,0,0-.518,1.256Z" transform="translate(-11.501 -10.526)" fill="#fff" stroke="#fff" stroke-width="1"/>
  </g>
</svg>
