<svg xmlns="http://www.w3.org/2000/svg" width="30.012" height="30.009" viewBox="0 0 30.012 30.009">
  <g id="noun-phone-7377179" transform="translate(0.501 0.509)">
    <path id="Path_40206" data-name="Path 40206" d="M15.057,28.7c.106-.106.212-.217.32-.323a13.323,13.323,0,0,1,1.036-.981,3.028,3.028,0,0,1,4.006.029,6.335,6.335,0,0,1,.488.459l.055.055c.562.562,1.123,1.127,1.69,1.693l.162-.085c.389-.2.76-.389,1.1-.605a21.708,21.708,0,0,0,5.237-4.891,11.859,11.859,0,0,0,1.495-2.361l-.415-.412c-.525-.522-1.069-1.057-1.6-1.605a3.06,3.06,0,0,1,0-4.524c.937-.963,1.9-1.924,2.839-2.85l.8-.789a3.271,3.271,0,0,1,1.417-.852,3.062,3.062,0,0,1,3.121.855c.28.268.551.547.822.822.407.415.793.808,1.2,1.179a4.8,4.8,0,0,1,1.681,3.816,11.032,11.032,0,0,1-.635,3.684A27.056,27.056,0,0,1,34.96,29.6a30.523,30.523,0,0,1-11.638,8.8,13.168,13.168,0,0,1-4.711,1.123c-.092,0-.179,0-.268,0a4.853,4.853,0,0,1-3.507-1.33c-.763-.742-1.516-1.513-2.248-2.262l-.113-.118a3.242,3.242,0,0,1-.947-1.881,3.149,3.149,0,0,1,1.006-2.71c.838-.845,1.678-1.681,2.523-2.519ZM13.35,33.692a1.47,1.47,0,0,0,.44.833l.118.118c.72.739,1.465,1.5,2.21,2.225a3.065,3.065,0,0,0,2.424.808,11.378,11.378,0,0,0,4.061-.981,28.64,28.64,0,0,0,10.939-8.277,25.211,25.211,0,0,0,4.59-8.009,9.344,9.344,0,0,0,.539-3.114v-.037a2.988,2.988,0,0,0-1.08-2.4c-.448-.4-.871-.833-1.278-1.248-.261-.264-.522-.532-.789-.789a1.366,1.366,0,0,0-.963-.466,1.317,1.317,0,0,0-.372.059,1.426,1.426,0,0,0-.628.389l-.8.793c-.93.922-1.891,1.876-2.817,2.832a1.257,1.257,0,0,0,.007,1.968c.511.529,1.047,1.057,1.565,1.572l.532.529a1.333,1.333,0,0,1,.334,1.792,13.334,13.334,0,0,1-1.8,2.9,23.552,23.552,0,0,1-5.685,5.3c-.415.264-.841.485-1.252.694-.176.092-.353.179-.529.275a1.223,1.223,0,0,1-1.542-.3c-.638-.643-1.274-1.281-1.914-1.921l-.055-.055c-.125-.125-.247-.247-.363-.341a1.2,1.2,0,0,0-1.664-.026c-.3.254-.6.547-.9.855-.11.113-.224.228-.339.339q-1.261,1.25-2.512,2.507a1.324,1.324,0,0,0-.488,1.182Z" transform="translate(-11.501 -10.526)" fill="#ffffff" stroke="#ffffff" stroke-width="1"/>
  </g>
</svg>
