<svg xmlns="http://www.w3.org/2000/svg" width="26.868" height="26.874" viewBox="0 0 26.868 26.874"><path d="M31.236,23.691a3.463,3.463,0,0,0-5.365.58l-.3.464a1.913,1.913,0,0,1-2.319.712A11.1,11.1,0,0,1,16.76,18.79a1.82,1.82,0,0,1,.764-2.18l.418-.268a3.462,3.462,0,0,0,.582-5.365l-2.3-2.3a3.452,3.452,0,0,0-4.46-.371L9.8,9.7A5,5,0,0,0,8,15.539,30.91,30.91,0,0,0,26.679,34.219a4.9,4.9,0,0,0,1.728.315,5.042,5.042,0,0,0,4.1-2.123l1.4-1.964a3.454,3.454,0,0,0-.371-4.461l-2.3-2.3ZM32.289,29.3l-1.4,1.965a3.019,3.019,0,0,1-3.508,1.1A29.021,29.021,0,0,1,9.856,14.836a3.019,3.019,0,0,1,1.1-3.515l1.959-1.4a1.474,1.474,0,0,1,1.9.159l2.3,2.3a1.48,1.48,0,0,1-.25,2.293l-.418.268a3.809,3.809,0,0,0-1.54,4.578A13.156,13.156,0,0,0,22.525,27.3a3.9,3.9,0,0,0,4.715-1.489l.3-.464a1.468,1.468,0,0,1,1.086-.672,1.452,1.452,0,0,1,1.206.424l2.3,2.3a1.472,1.472,0,0,1,.157,1.9Z" transform="translate(-7.683 -7.66)" fill="#fff"/></svg>