<svg xmlns="http://www.w3.org/2000/svg" width="85" height="84" viewBox="0 0 85 84">
  <g id="Group_16122" data-name="Group 16122" transform="translate(-121.22 -246)">
    <ellipse id="Bildschirmfoto_2024-11-13_um_17.13.40" data-name="Bildschirmfoto 2024-11-13 um 17.13.40" cx="42.5" cy="42" rx="42.5" ry="42" transform="translate(121.22 246)" fill="none"/>
    <g id="Polygon_1" data-name="Polygon 1" transform="translate(185.22 270) rotate(90)" fill="none">
      <path d="M15.534,6.021a4,4,0,0,1,6.933,0L34.548,27a4,4,0,0,1-3.466,6H6.919a4,4,0,0,1-3.466-6Z" stroke="none"/>
      <path d="M 19 7.016609191894531 C 18.78408050537109 7.016609191894531 18.38437080383301 7.081697463989258 18.13338088989258 7.51763916015625 L 6.052030563354492 28.50102806091309 C 5.801551818847656 28.93607711791992 5.945079803466797 29.31397819519043 6.052919387817383 29.50051879882812 C 6.160770416259766 29.68705749511719 6.416650772094727 29.99999809265137 6.918649673461914 29.99999809265137 L 31.08135032653809 29.99999809265137 C 31.58333969116211 29.99999809265137 31.83922958374023 29.68705749511719 31.94707107543945 29.50051879882812 C 32.0549201965332 29.31397819519043 32.19844818115234 28.93606758117676 31.94796943664551 28.50102806091309 L 19.86661911010742 7.51763916015625 C 19.61562919616699 7.081697463989258 19.21591949462891 7.016609191894531 19 7.016609191894531 M 19 4.016605377197266 C 20.34861183166504 4.016605377197266 21.69722557067871 4.684652328491211 22.46648979187012 6.020748138427734 L 34.5478401184082 27.0041389465332 C 36.08319091796875 29.67080879211426 34.15842056274414 33 31.08135032653809 33 L 6.918649673461914 33 C 3.841571807861328 33 1.91680908203125 29.67080879211426 3.452159881591797 27.0041389465332 L 15.53351020812988 6.020748138427734 C 16.30277442932129 4.684652328491211 17.65138816833496 4.016605377197266 19 4.016605377197266 Z" stroke="none" fill="#fff"/>
    </g>
  </g>
</svg>
