<svg xmlns="http://www.w3.org/2000/svg" width="31.407" height="31.419" viewBox="0 0 31.407 31.419">
  <path id="Path_40472" data-name="Path 40472" d="M28.934,0a2.457,2.457,0,0,0-.923.173L1.482,10.6a2.428,2.428,0,0,0-.29,4.319l9.839,5.474L16.5,30.229a2.427,2.427,0,0,0,4.319-.282L31.244,3.4a2.511,2.511,0,0,0-.56-2.673A2.531,2.531,0,0,0,28.933,0Zm-1.36,2.453-15.988,16L2.141,13.2A.409.409,0,0,1,2.2,12.42Zm1.388,1.392L19,29.23a.409.409,0,0,1-.783.05l-5.245-9.445Z" transform="translate(-0.007 0)" fill="#fff"/>
</svg>
