<svg xmlns="http://www.w3.org/2000/svg" width="20" height="20" viewBox="0 0 20 20">
  <g id="Group_16068" data-name="Group 16068" transform="translate(-552.5 -2029.093)">
    <path id="Path_40467" data-name="Path 40467" d="M22,19.143a2.857,2.857,0,1,1-5.714,0,2.75,2.75,0,0,1,.071-.593L7,13.871a2.807,2.807,0,0,1-2.143.986,2.857,2.857,0,0,1,0-5.714A2.807,2.807,0,0,1,7,10.129L16.357,5.45a2.75,2.75,0,0,1-.071-.593,2.857,2.857,0,1,1,2.857,2.857A2.807,2.807,0,0,1,17,6.729L7.643,11.407a2.493,2.493,0,0,1,0,1.186L17,17.271a2.807,2.807,0,0,1,2.143-.986A2.857,2.857,0,0,1,22,19.143Z" transform="translate(550.5 2027.093)" fill="#1b2020"/>
  </g>
</svg>
