<svg xmlns="http://www.w3.org/2000/svg" width="41.81" height="40.632" viewBox="0 0 41.81 40.632">
  <g id="noun-speech-bubbles-1234679" transform="translate(-8.18 -9.34)">
    <path id="Path_40684" data-name="Path 40684" d="M45.474,17.484H42.261V13.837a4.5,4.5,0,0,0-4.5-4.5H12.677a4.5,4.5,0,0,0-4.5,4.5V29.476a4.5,4.5,0,0,0,4.5,4.5h3.208V37.62a4.5,4.5,0,0,0,4.5,4.5H30.739l6.7,7.365A1.5,1.5,0,0,0,40,48.812l1.564-6.69h3.927a4.5,4.5,0,0,0,4.5-4.5V21.981a4.5,4.5,0,0,0-4.517-4.5ZM12.682,30.975a1.5,1.5,0,0,1-1.5-1.5V13.832a1.5,1.5,0,0,1,1.5-1.5H37.764a1.5,1.5,0,0,1,1.5,1.5v3.647H20.386a4.5,4.5,0,0,0-4.5,4.5V30.97ZM46.973,37.62a1.5,1.5,0,0,1-1.5,1.5H40.352a1.5,1.5,0,0,0-1.459,1.164l-1.169,5.066-5.211-5.736a1.5,1.5,0,0,0-1.109-.5H20.386a1.5,1.5,0,0,1-1.5-1.5V21.981a1.5,1.5,0,0,1,1.5-1.5H45.474a1.5,1.5,0,0,1,1.5,1.5Z" transform="translate(0)"/>
    <path id="Path_40685" data-name="Path 40685" d="M36.319,45H49.06a1.5,1.5,0,0,0,0-3H36.319a1.5,1.5,0,0,0,0,3Z" transform="translate(-13.329 -16.342)"/>
    <path id="Path_40686" data-name="Path 40686" d="M56.555,53H36.319a1.5,1.5,0,0,0,0,3H56.555a1.5,1.5,0,1,0,0-3Z" transform="translate(-13.329 -21.845)"/>
  </g>
</svg>
