<svg id="Terras_logo" xmlns="http://www.w3.org/2000/svg" width="116.408" height="20.308" viewBox="0 0 116.408 20.308">
  <path id="Path_40576" data-name="Path 40576" d="M169.358,11.3a8.067,8.067,0,0,0-4.089-1.4l-2.374-.3a4.6,4.6,0,0,1-2.1-.731,1.5,1.5,0,0,1-.6-1.268c0-1.417,1.275-2.3,3.358-2.3a6.305,6.305,0,0,1,4.212,1.268l.285.22,2.711-2.271-.433-.343a9.972,9.972,0,0,0-6.716-2.1c-4.484,0-7.382,2.213-7.382,5.609a4.521,4.521,0,0,0,1.708,3.759,8.179,8.179,0,0,0,4.141,1.488l2.5.3a3.481,3.481,0,0,1,1.993.641,1.765,1.765,0,0,1,.647,1.482c0,2.025-2.678,2.245-3.83,2.245a7.051,7.051,0,0,1-5.008-1.572l-.291-.246-2.8,2.342.4.349c1.986,1.708,4.264,2.439,7.634,2.439,4.8,0,7.906-2.213,7.906-5.609a4.75,4.75,0,0,0-1.87-4Z" transform="translate(-54.818 -0.731)" fill="#1b2020"/>
  <path id="Path_40577" data-name="Path 40577" d="M0,2.75V6.056H5.706V21.279h4.05V6.056h5.706V2.75Z" transform="translate(0 -0.971)" fill="#1b2020"/>
  <path id="Path_40578" data-name="Path 40578" d="M44.836,6.052V2.74H30.68V21.276H44.836V17.963h-10.1V13.577h8.618V10.29H34.737V6.052Z" transform="translate(-10.831 -0.967)" fill="#1b2020"/>
  <path id="Path_40579" data-name="Path 40579" d="M70.66,13.3a5.161,5.161,0,0,0,3.888-4.956c0-3.351-2.769-5.6-6.89-5.6H59.17V21.269h4.05V13.842h3.215L70.8,21.269h4.736L70.654,13.3ZM70.5,8.369c0,1.689-1.585,2.3-3.073,2.3H63.22V6.052h4.205c1.9,0,3.073.886,3.073,2.316Z" transform="translate(-20.889 -0.967)" fill="#1b2020"/>
  <path id="Path_40580" data-name="Path 40580" d="M101.4,13.3a5.161,5.161,0,0,0,3.888-4.956c0-3.351-2.769-5.6-6.89-5.6H89.91V21.269h4.05V13.842h3.215l4.367,7.427h4.736L101.394,13.3Zm-.162-4.93c0,1.689-1.585,2.3-3.073,2.3H93.96V6.052h4.205c1.9,0,3.073.886,3.073,2.316Z" transform="translate(-31.741 -0.967)" fill="#1b2020"/>
  <path id="Pfad_18" d="M126.9,7.14l-8.954,15.5h3.131L126.9,12.555l1.068,1.844-1.54,2.672h6.211l-5.732-9.925Z" transform="translate(-41.64 -2.521)" fill="#ff211a"/>
  <path id="Pfad_19" d="M132.45,0l-1.6,2.782,8.941,15.463h-2.135l-1.061-1.837h-8.359l-2.141,3.714h17.992Z" transform="translate(-44.513)" fill="#1b2020"/>
</svg>
