<svg id="Group_15881" data-name="Group 15881" xmlns="http://www.w3.org/2000/svg" xmlns:xlink="http://www.w3.org/1999/xlink" width="159.669" height="71.122" viewBox="0 0 159.669 71.122">
  <defs>
    <clipPath id="clip-path">
      <rect id="Rectangle_34505" data-name="Rectangle 34505" width="159.669" height="71.122" fill="none"/>
    </clipPath>
  </defs>
  <g id="Group_15880" data-name="Group 15880" clip-path="url(#clip-path)">
    <path id="Path_40402" data-name="Path 40402" d="M182.842,218.128l-137.5,7.206a7.011,7.011,0,0,1-7.369-6.635l-.556-10.615a7.011,7.011,0,0,1,6.635-7.369l137.5-7.206a7.011,7.011,0,0,1,7.369,6.635l.556,10.615a7.011,7.011,0,0,1-6.635,7.369" transform="translate(-29.818 -154.222)" fill="#3c4646"/>
    <path id="Path_40403" data-name="Path 40403" d="M41.878,2.948C41.288-.921,37.555,0,34.753.364c-2.7.252-5.392.59-8.093.849-6.532.517-13.084.655-19.631.736C4.954,1.975,2.408,1.6.758,3.1a2.956,2.956,0,0,0,2.456,4.9c4.853.125,9.542.085,14.4-.022.015,5.627.1,12.668.157,19,.233,2.291-.641,5.437,1.709,6.866,2.279,1.266,3.936-1.469,3.86-3.669-.151-5.128-.015-10.268-.247-15.4-.084-2.314-.181-4.645-.277-6.966,1.733-.05,3.311-.063,5.044-.116,2.581-.021,5.143-.258,7.731-.41,2.987-.176,6.655-.44,6.289-4.345" transform="translate(0 0)" fill="#3c4646"/>
    <path id="Path_40404" data-name="Path 40404" d="M372.741,13.56c-4.9,1.427-9.806,3.685-13.213,7.6l-.19.213c-.044-2.592.352-5.652-1.656-7.507a2.118,2.118,0,0,0-3.02.5c-.939,1.347-.794,3.119-.849,4.69.076,3.8-.109,7.594-.086,11.392.085,2.241-.046,4.476.026,6.72.076,2.1-.337,4.389.567,6.354a2.476,2.476,0,0,0,4.437,0c.692-1.472.515-3.148.515-4.729-.016-2.391-.285-6.16.1-7.172.935-2.457,3.408-6.473,9.645-9.065,2.159-1.169,4.9-1.234,6.8-2.8,2.583-2.387.551-7.16-3.081-6.2" transform="translate(-281.922 -10.707)" fill="#3c4646"/>
    <path id="Path_40405" data-name="Path 40405" d="M512.813,16.886a33.048,33.048,0,0,0-15.029,7.926q-.029-2.007-.056-4.014c-.044-1.607-.068-3.527-1.609-4.468-4.949-1.743-3.472,8.38-3.752,11.136.089,4.785.121,9.553.445,14.334.056,1.151.182,3.263.993,4.348,1.3,1.8,3.753.688,3.98-1.308.548-3.678-.05-8.81.109-11.278.036-.559.893-1.37,1.3-1.753a33.375,33.375,0,0,1,8.684-5.916c2.574-1.317,5.8-1.3,8.084-3.125,2.338-2.336.308-6.914-3.146-5.881" transform="translate(-392.419 -12.856)" fill="#3c4646"/>
    <path id="Path_40406" data-name="Path 40406" d="M646.689,43.282c-2.671-.213-5.428-.944-7.308-3.071-1.414-1.6-.6-4.688,1.779-4.541,1.88.116,3.507,1.09,5.375,1.2,8.184.531,8.874-5.04,8.684-11.707C649.7,30,640.075,29.182,638.253,21.169c-.558-2.532-.624-9.1,2.122-10.28,1.807-.643,3.089,1.321,3.028,2.933-.124,1.922-.378,3.947.29,5.779,1.41,3.866,7.437,2.049,9.435-.537a13.95,13.95,0,0,0,2.024-4.215c.484-1.431,1.337-2.832,2.874-2.787,3.351.41,2.93,5.867,2.87,8.974-.207,10.734-.151,23.163-14.208,22.245" transform="translate(-508.449 -8.579)" fill="#3c4646"/>
    <path id="Path_40407" data-name="Path 40407" d="M205.964,43.5c-13.76-5.871-8.613-28.819,4.993-31.385,7.188-.974,11.533,8.452,8.023,14.133-1.625,2.724-2.743,1.9-5.318,1.983-3.407,0-7.144.637-10.423.519-.83,5.124,3.574,10.366,8.918,8.538,3.295-.636,5.657-3.334,8.809-4.193a2.232,2.232,0,0,1,2.811,1.1c1.193,2.174-.68,4.43-2.382,5.676-4.362,3.036-10.137,5.733-15.431,3.626m-.832-20.717c3.178-.207,6.37-.269,9.552-.289.433-2.226-1.349-4.672-3.731-4.359-2.572.407-4.411,2.621-5.821,4.648" transform="translate(-157.693 -9.597)" fill="#3c4646"/>
    <path id="Path_40408" data-name="Path 40408" d="M99.821,273.185a1.032,1.032,0,0,1-.71-.295.942.942,0,0,1-.278-.7q0-1.962-.138-4.355-.048-.918-.123-1.918t-.183-2.2a.825.825,0,0,1,.234-.722.891.891,0,0,1,.677-.337l.045,0a8.215,8.215,0,0,1,2.718.3,6.936,6.936,0,0,1,2.185,1.078,6.056,6.056,0,0,1,1.52,1.641,5.281,5.281,0,0,1,.723,1.985,4.522,4.522,0,0,1-.11,1.795,4.087,4.087,0,0,1-.831,1.576,5.89,5.89,0,0,1-.711.686,5.025,5.025,0,0,1-1.045.651,8.038,8.038,0,0,1-1.46.514,9.758,9.758,0,0,1-1.925.274Zm.608-8.561q.075.856.13,1.616t.093,1.482q.112,1.851.135,3.45a6.8,6.8,0,0,0,1.953-.472,3.332,3.332,0,0,0,1.3-.921,2.143,2.143,0,0,0,.491-1,2.955,2.955,0,0,0,.03-.855,3.18,3.18,0,0,0-.481-1.265,3.942,3.942,0,0,0-1-1.057,5.437,5.437,0,0,0-1.058-.6,5.037,5.037,0,0,0-1.59-.377" transform="translate(-78.41 -209.332)" fill="#fff"/>
    <path id="Path_40409" data-name="Path 40409" d="M149.115,270.031a4.131,4.131,0,0,1-1.382-.154,3.679,3.679,0,0,1-2.157-1.7,6.291,6.291,0,0,1-.815-3.46,8.189,8.189,0,0,1,.277-2.06,5.141,5.141,0,0,1,.767-1.648,3.85,3.85,0,0,1,1.166-1.088,3.054,3.054,0,0,1,2.939-.094,3.794,3.794,0,0,1,1.217,1.038,5.06,5.06,0,0,1,.839,1.6,8.9,8.9,0,0,1,.395,2.063.983.983,0,0,1-1.017,1.05,11.67,11.67,0,0,0-1.62.047q-.8.08-1.658.185-.3.046-.615.077l-.631.063a3.425,3.425,0,0,0,.425,1.2,1.762,1.762,0,0,0,1.04.836,2.465,2.465,0,0,0,1.475-.077,2.141,2.141,0,0,0,.6-.3,1.494,1.494,0,0,0,.4-.406.911.911,0,0,1,.6-.432.934.934,0,0,1,.739.135.913.913,0,0,1,.431.6.964.964,0,0,1-.12.738,3.349,3.349,0,0,1-.837.882,4.8,4.8,0,0,1-1.167.627,6.382,6.382,0,0,1-.647.177,4.062,4.062,0,0,1-.652.087m-.645-8.571a1.406,1.406,0,0,0-1.066.69,3.3,3.3,0,0,0-.378.707,4.441,4.441,0,0,0-.265,1.139l.526-.058q.27-.029.539-.073.6-.062,1.2-.131t1.232-.1a4.032,4.032,0,0,0-.307-.957,3.735,3.735,0,0,0-.364-.608,1.318,1.318,0,0,0-1.1-.606Z" transform="translate(-115.376 -206.824)" fill="#fff"/>
    <path id="Path_40410" data-name="Path 40410" d="M257.652,255.718a10.792,10.792,0,0,0-1.565.1,4.128,4.128,0,0,0-.686.157q-.023.426-.038,1.148t0,1.556q1.04-.024,2.063-.108t2.009-.256a.921.921,0,0,1,.719.173.952.952,0,0,1,.4.639.93.93,0,0,1-.173.728.9.9,0,0,1-.629.378,29.763,29.763,0,0,1-3.273.351l-.512.027q-.256.013-.513.012.07.766.145,1.177t.113.575q.212.02.733.022t1.527-.1q.406-.036.766-.078t.645-.079q.285-.038.629-.086a.92.92,0,0,1,.719.174.958.958,0,0,1,.4.644.918.918,0,0,1-.174.718.958.958,0,0,1-.643.4l-.21.026-.51.065-.72.09q-.405.052-.841.09-.27.029-.518.05c-.165.014-.329.025-.489.033q-.211.011-.407.014t-.377.012a3.377,3.377,0,0,1-1.592-.278,1.731,1.731,0,0,1-.722-.927,3.91,3.91,0,0,1-.127-.43q-.058-.238-.118-.536-.07-.478-.132-1.078t-.086-1.352q-.034-.646-.038-1.3t0-1.221q.008-.566.022-1.011t.046-.689a1.32,1.32,0,0,1,.208-.614,1.841,1.841,0,0,1,.469-.492,2.314,2.314,0,0,1,.408-.225,3.538,3.538,0,0,1,.515-.171q.387-.1.9-.167a10.335,10.335,0,0,1,1.143-.09q.512-.027,1-.022t.869.022q.386.017.621.035t.265.016a.99.99,0,0,1,.675.339.9.9,0,0,1,.226.707.907.907,0,0,1-.336.655.984.984,0,0,1-.72.24q-.349-.027-.636-.042t-.658-.018q-.37,0-.777,0" transform="translate(-201.976 -202.25)" fill="#fff"/>
    <path id="Path_40411" data-name="Path 40411" d="M351.68,254.646a.956.956,0,0,1-.2.727.941.941,0,0,1-.652.374l-.075,0a.967.967,0,0,1-1.011-.853,1.471,1.471,0,0,1-.031-.164c-.008-.06-.013-.115-.016-.165l-.086.1a3.669,3.669,0,0,1-1.1.842,3.244,3.244,0,0,1-1.288.339,3.282,3.282,0,0,1-1.332-.2,3.429,3.429,0,0,1-1.147-.71,4.256,4.256,0,0,1-1.032-1.546,5.448,5.448,0,0,1-.294-1,6.768,6.768,0,0,1-.119-1.118,5.6,5.6,0,0,1,.922-3.445,3.923,3.923,0,0,1,1.125-1.01,3.316,3.316,0,0,1,1.4-.405,3.166,3.166,0,0,1,1.448.271,3.424,3.424,0,0,1,.827.515q-.009-.452-.031-.881t-.029-.837a.97.97,0,0,1,.273-.693.9.9,0,0,1,.671-.307.986.986,0,0,1,.709.272.919.919,0,0,1,.308.686q.021.98.087,2.086t.157,2.286q.092,1.18.224,2.4t.286,2.438m-3.524-1.28a3.15,3.15,0,0,0,.6-2.3,4.1,4.1,0,0,0-.3-1.4,3.036,3.036,0,0,0-.478-.775,1.376,1.376,0,0,0-1.13-.53,1.255,1.255,0,0,0-.572.174,1.469,1.469,0,0,0-.467.439,3.052,3.052,0,0,0-.381.8,4.265,4.265,0,0,0-.166,1.435,4.124,4.124,0,0,0,.222,1.354,2.248,2.248,0,0,0,.592.928,1.414,1.414,0,0,0,1.047.4,1.457,1.457,0,0,0,1.029-.522" transform="translate(-273.618 -194.848)" fill="#fff"/>
    <path id="Path_40412" data-name="Path 40412" d="M397.092,254.477a.941.941,0,0,1-.684-.228.973.973,0,0,1-.343-.639q-.075-.57-.152-1.034t-.191-1.062q-.115-.6-.283-1.223a11.79,11.79,0,0,0-.812-2.237,2.472,2.472,0,0,0-.41-.628,1.467,1.467,0,0,0-.189-.156,2.3,2.3,0,0,0-.2.177,2.758,2.758,0,0,0-.446.7,11.511,11.511,0,0,0-.783,2.336q-.163.642-.281,1.26t-.2,1.1q-.08.487-.155,1.08a1.023,1.023,0,0,1-.329.629.92.92,0,0,1-.667.239.945.945,0,0,1-.648-.268.986.986,0,0,1-.306-.648l-.655-9.325a.894.894,0,0,1,.235-.707,1,1,0,0,1,.677-.337.9.9,0,0,1,.707.235,1,1,0,0,1,.337.677l.221,3.068c.036-.082.072-.163.108-.24s.077-.157.123-.241a5.176,5.176,0,0,1,.4-.632,3.317,3.317,0,0,1,.435-.483,2.261,2.261,0,0,1,.768-.471,2.044,2.044,0,0,1,.621-.115,2.16,2.16,0,0,1,1.4.53,4.308,4.308,0,0,1,.856,1.072,11.718,11.718,0,0,1,1.033,2.708q.188.7.328,1.364t.228,1.188q.088.524.135.853t.049.36a.92.92,0,0,1-.2.712.952.952,0,0,1-.645.373Z" transform="translate(-310.318 -194.079)" fill="#fff"/>
    <path id="Path_40413" data-name="Path 40413" d="M444.854,252.822a.955.955,0,0,1-.2.727.939.939,0,0,1-.652.374l-.075,0a.955.955,0,0,1-.683-.221.945.945,0,0,1-.342-.631.733.733,0,0,0-.024-.165.324.324,0,0,1-.056.078,2.822,2.822,0,0,1-.5.464,4.355,4.355,0,0,1-.563.347,3.617,3.617,0,0,1-1.252.307,3.45,3.45,0,0,1-.764-.043,3.849,3.849,0,0,1-1.464-.572,4.329,4.329,0,0,1-.638-.5,4.871,4.871,0,0,1-1.216-1.755,6.3,6.3,0,0,1-.457-2.248,9.3,9.3,0,0,1,.064-1.09,5.527,5.527,0,0,1,.218-1.023,5.391,5.391,0,0,1,.848-1.675,4.193,4.193,0,0,1,1.3-1.162,3.5,3.5,0,0,1,1.561-.467,3.139,3.139,0,0,1,2.212.729.99.99,0,0,1,.307-.62.912.912,0,0,1,.643-.26.971.971,0,0,1,.694.273.919.919,0,0,1,.308.686q.049,2.383.267,4.507t.463,3.938m-3.487-1.146a2.69,2.69,0,0,0,.543-1.168,6.208,6.208,0,0,0,.121-1.72,6.493,6.493,0,0,0-.208-1.378,4.243,4.243,0,0,0-.424-1.042,1.913,1.913,0,0,0-.593-.648,1.219,1.219,0,0,0-.742-.2,1.641,1.641,0,0,0-.786.268,2.357,2.357,0,0,0-.7.693,3.892,3.892,0,0,0-.487,1.067,4.327,4.327,0,0,0-.161,1.39,4.133,4.133,0,0,0,.282,1.487,3.076,3.076,0,0,0,.761,1.13,2.229,2.229,0,0,0,.7.454,1.709,1.709,0,0,0,.739.135,1.313,1.313,0,0,0,.956-.473" transform="translate(-347.476 -194.007)" fill="#fff"/>
    <path id="Path_40414" data-name="Path 40414" d="M495.641,251.774l-.06,0a.966.966,0,0,1-.69-.3.919.919,0,0,1-.276-.7q0-.618-.021-1.116t-.06-1.144q-.042-.647-.122-1.322a12.385,12.385,0,0,0-.5-2.54,3.37,3.37,0,0,0-.3-.754,2.759,2.759,0,0,0-.2-.291,1.814,1.814,0,0,0-.226.291,3.378,3.378,0,0,0-.337.78,8.088,8.088,0,0,0-.316,1.164q-.132.656-.255,1.478-.1.715-.147,1.374t-.081,1.182q-.033.522-.045,1.157a.975.975,0,0,1-.274.671.942.942,0,0,1-.656.3h-.015a1.006,1.006,0,0,1-1.014-.913q-.048-.617-.1-1.127t-.143-1.155q-.087-.644-.2-1.348a22.5,22.5,0,0,0-.479-2.367,9.7,9.7,0,0,0-.4-1.209,4.392,4.392,0,0,0-.171.484q-.09.3-.188.742t-.2,1.052q-.1.61-.2,1.4-.084.714-.139,1.381t-.089,1.182q-.034.515-.061,1.151a.967.967,0,0,1-.931.954.987.987,0,0,1-.677-.236.96.96,0,0,1-.335-.632l-1.022-8.551a.917.917,0,0,1,.2-.72.978.978,0,0,1,.66-.367.917.917,0,0,1,.72.2.979.979,0,0,1,.367.66l.109.93a5.654,5.654,0,0,1,.5-1.068,1.748,1.748,0,0,1,1.237-.88,1.46,1.46,0,0,1,1.18.331,2.777,2.777,0,0,1,.655.841,7.546,7.546,0,0,1,.55,1.421.122.122,0,0,1,.017.052.121.121,0,0,0,.018.052q.065-.2.124-.369t.126-.324a3.774,3.774,0,0,1,.764-1.263,1.978,1.978,0,0,1,.771-.546,2.1,2.1,0,0,1,.672-.133,1.94,1.94,0,0,1,1.415.605,4.976,4.976,0,0,1,1.125,2.311,20.672,20.672,0,0,1,.46,2.769q.066.676.106,1.3t.05,1.1q.01.475.01.762t0,.317a.991.991,0,0,1-.264.67.905.905,0,0,1-.643.3" transform="translate(-386.307 -192.529)" fill="#fff"/>
    <path id="Path_40415" data-name="Path 40415" d="M553.779,248.717a5.664,5.664,0,0,1-1.547-.13A4.115,4.115,0,0,1,550.79,248a2.669,2.669,0,0,1-.9-.994.957.957,0,0,1-.062-.752.938.938,0,0,1,.491-.569.96.96,0,0,1,.752-.062.939.939,0,0,1,.569.491.879.879,0,0,0,.388.342,2.631,2.631,0,0,0,.692.235,3.857,3.857,0,0,0,.872.075,3.684,3.684,0,0,0,.929-.139,2.209,2.209,0,0,0,.26-.082,2.015,2.015,0,0,0,.339-.161,1.092,1.092,0,0,0,.282-.234.434.434,0,0,0,.1-.315.534.534,0,0,0-.045-.149.738.738,0,0,0-.308-.256,4.042,4.042,0,0,0-.681-.312q-.4-.145-.845-.288-.615-.209-1.215-.434a5.267,5.267,0,0,1-1.133-.59,3.007,3.007,0,0,1-1.431-2.537,2.851,2.851,0,0,1,.9-2.176,3.647,3.647,0,0,1,1.932-.871,4.869,4.869,0,0,1,1.349-.033,6.2,6.2,0,0,1,1.336.3,3.766,3.766,0,0,1,1.26.719,2.17,2.17,0,0,1,.657,1.007.9.9,0,0,1-.074.744,1.009,1.009,0,0,1-.586.484.934.934,0,0,1-.736-.082.986.986,0,0,1-.476-.579.765.765,0,0,0-.23-.215,2.26,2.26,0,0,0-.6-.271,3.508,3.508,0,0,0-.892-.172,2.812,2.812,0,0,0-.849.067,1.761,1.761,0,0,0-.6.22,1.067,1.067,0,0,0-.31.288.664.664,0,0,0-.113.3,1.741,1.741,0,0,0-.01.242.993.993,0,0,0,.133.521,1.355,1.355,0,0,0,.429.415,4.194,4.194,0,0,0,.86.423q.5.185,1.008.37t1.007.347a4.663,4.663,0,0,1,.922.443,2.409,2.409,0,0,1,1.293,1.925,2.3,2.3,0,0,1-.73,1.91,3.805,3.805,0,0,1-1.674.9,4.854,4.854,0,0,1-.619.146,5.654,5.654,0,0,1-.653.072" transform="translate(-438.176 -189.815)" fill="#fff"/>
    <path id="Path_40416" data-name="Path 40416" d="M600.044,242.03a.987.987,0,0,1,.709.272.919.919,0,0,1,.307.686,3.887,3.887,0,0,1-.167,1.269,3.746,3.746,0,0,1-.553,1.108,3.429,3.429,0,0,1-1.821,1.258,2.969,2.969,0,0,1-.718.128,2.556,2.556,0,0,1-1.034-.142,2.583,2.583,0,0,1-1.466-1.191,5.083,5.083,0,0,1-.5-1.34,12.764,12.764,0,0,1-.294-2l-.887.077c0,.01-.009.015-.029.017a.94.94,0,0,1-.692-.243.957.957,0,0,1-.336-.654.929.929,0,0,1,.227-.714.945.945,0,0,1,.654-.344l.976-.1q-.016-.874.008-1.578t.036-1.051a.5.5,0,0,1,0-.091.468.468,0,0,0,0-.076.949.949,0,0,1,.172-.606.911.911,0,0,1,.517-.367.952.952,0,0,1,.459-.032.9.9,0,0,1,.425.2,2.6,2.6,0,0,1,.232.259.786.786,0,0,1,.141.536l0,.075a.476.476,0,0,1,0,.076.637.637,0,0,0,0,.106q-.015.3-.034.938t-.008,1.435l1.7-.149a.882.882,0,0,1,.713.212.961.961,0,0,1,.345.669.884.884,0,0,1-.212.713.959.959,0,0,1-.669.344l-1.787.169q.048.632.124,1.073t.144.74a3.123,3.123,0,0,0,.138.468,1.39,1.39,0,0,0,.118.243.634.634,0,0,0,.494.359,1.413,1.413,0,0,0,.489-.033,1.637,1.637,0,0,0,.8-.555,1.657,1.657,0,0,0,.332-1.15.981.981,0,0,1,.266-.693.927.927,0,0,1,.662-.322Zm-5.532-4.45c0-.01,0-.015-.008-.015s-.008,0-.008-.015a1.744,1.744,0,0,0,.062.178c.017.039,0-.01-.045-.149" transform="translate(-472.276 -188.34)" fill="#fff"/>
    <path id="Path_40417" data-name="Path 40417" d="M643.186,244.138a4.133,4.133,0,0,1-1.382-.154,3.679,3.679,0,0,1-2.157-1.7,6.294,6.294,0,0,1-.815-3.46,8.187,8.187,0,0,1,.277-2.06,5.144,5.144,0,0,1,.767-1.648,3.851,3.851,0,0,1,1.166-1.088,3.054,3.054,0,0,1,2.939-.094,3.791,3.791,0,0,1,1.217,1.038,5.06,5.06,0,0,1,.839,1.6,8.9,8.9,0,0,1,.395,2.063.983.983,0,0,1-1.017,1.05,11.673,11.673,0,0,0-1.62.047q-.8.08-1.658.185-.3.046-.615.077l-.63.063a3.425,3.425,0,0,0,.425,1.2,1.762,1.762,0,0,0,1.04.836,2.465,2.465,0,0,0,1.475-.077,2.14,2.14,0,0,0,.6-.3,1.49,1.49,0,0,0,.4-.406.913.913,0,0,1,.6-.432.933.933,0,0,1,.739.135.913.913,0,0,1,.432.6.964.964,0,0,1-.12.738,3.345,3.345,0,0,1-.837.882,4.789,4.789,0,0,1-1.167.627,6.35,6.35,0,0,1-.647.177,4.056,4.056,0,0,1-.652.087m-.646-8.571a1.406,1.406,0,0,0-1.066.69,3.306,3.306,0,0,0-.378.707,4.435,4.435,0,0,0-.265,1.139l.525-.058q.27-.029.54-.073.6-.062,1.2-.131t1.233-.1a4.035,4.035,0,0,0-.307-.957,3.725,3.725,0,0,0-.364-.608,1.318,1.318,0,0,0-1.1-.606Z" transform="translate(-509.156 -186.187)" fill="#fff"/>
    <path id="Path_40418" data-name="Path 40418" d="M197.108,261.093a10.491,10.491,0,0,0-4.632,2.762q-.043-.635-.084-1.271c-.041-.508-.08-1.117-.584-1.389-1.6-.47-.961,2.714-1,3.592.108,1.515.2,3.026.379,4.536a2.846,2.846,0,0,0,.387,1.362.706.706,0,0,0,1.24-.481,35.475,35.475,0,0,0-.153-3.576c0-.178.26-.449.383-.577a10.589,10.589,0,0,1,2.654-2.02c.794-.46,1.816-.509,2.51-1.125.7-.779-.017-2.2-1.095-1.812" transform="translate(-152.001 -208.043)" fill="#fff"/>
    <path id="Path_40419" data-name="Path 40419" d="M306.688,253.445a10.491,10.491,0,0,0-4.632,2.762q-.043-.635-.084-1.271c-.041-.508-.08-1.117-.584-1.389-1.6-.47-.961,2.714-1,3.592.108,1.515.2,3.026.379,4.536a2.846,2.846,0,0,0,.387,1.362.706.706,0,0,0,1.24-.481,35.471,35.471,0,0,0-.153-3.576c0-.178.26-.449.383-.577a10.59,10.59,0,0,1,2.654-2.02c.794-.46,1.816-.509,2.51-1.125.7-.779-.017-2.2-1.095-1.812" transform="translate(-239.337 -201.947)" fill="#fff"/>
    <path id="Path_40420" data-name="Path 40420" d="M690.221,234.7a10.491,10.491,0,0,0-4.632,2.762q-.043-.635-.084-1.271c-.041-.508-.08-1.117-.584-1.389-1.6-.47-.961,2.714-1,3.592.108,1.515.2,3.026.379,4.536a2.846,2.846,0,0,0,.387,1.362.706.706,0,0,0,1.24-.481,35.487,35.487,0,0,0-.153-3.576c0-.178.26-.449.383-.577a10.589,10.589,0,0,1,2.654-2.02c.794-.46,1.816-.509,2.51-1.125.7-.779-.017-2.2-1.095-1.812" transform="translate(-545.018 -187.009)" fill="#fff"/>
  </g>
</svg>
