<svg xmlns="http://www.w3.org/2000/svg" width="20.423" height="23.563" viewBox="0 0 20.423 23.563"><path d="M17.879,5.039a5.367,5.367,0,0,1-.464-.27,6.522,6.522,0,0,1-1.191-1.012A5.619,5.619,0,0,1,14.882.987h0A3.412,3.412,0,0,1,14.833,0H10.786V15.648c0,.21,0,.418-.009.623,0,.026,0,.049,0,.077a.167.167,0,0,1,0,.035v.009a3.436,3.436,0,0,1-1.729,2.727,3.377,3.377,0,0,1-1.674.442,3.436,3.436,0,0,1,0-6.872,3.381,3.381,0,0,1,1.051.166l0-4.12a7.517,7.517,0,0,0-5.792,1.695A7.942,7.942,0,0,0,.9,12.566,7.4,7.4,0,0,0,0,15.964a8.021,8.021,0,0,0,.434,2.687v.01a7.908,7.908,0,0,0,1.1,2,8.224,8.224,0,0,0,1.753,1.654v-.01l.01.01a7.572,7.572,0,0,0,4.131,1.244,7.314,7.314,0,0,0,3.066-.678,7.7,7.7,0,0,0,2.49-1.871,7.778,7.778,0,0,0,1.357-2.255,8.445,8.445,0,0,0,.488-2.579v-8.3c.049.029.7.462.7.462a9.36,9.36,0,0,0,2.412,1,13.889,13.889,0,0,0,2.475.339V5.658a5.248,5.248,0,0,1-2.543-.619" transform="translate(0)" fill="#fff"/></svg>