<svg id="Group_15882" data-name="Group 15882" xmlns="http://www.w3.org/2000/svg" xmlns:xlink="http://www.w3.org/1999/xlink" width="34.151" height="39.403" viewBox="0 0 34.151 39.403">
  <defs>
    <clipPath id="clip-path">
      <rect id="Rectangle_20" data-name="Rectangle 20" width="34.151" height="39.403" fill="#1b2020"/>
    </clipPath>
  </defs>
  <g id="Group_71" data-name="Group 71" clip-path="url(#clip-path)">
    <path id="Path_61" data-name="Path 61" d="M29.9,8.427a8.974,8.974,0,0,1-.776-.451A10.907,10.907,0,0,1,27.13,6.283a9.4,9.4,0,0,1-2.245-4.632h.008A5.706,5.706,0,0,1,24.8,0H18.037V26.167c0,.351,0,.7-.015,1.042,0,.043,0,.082-.007.128a.279.279,0,0,1,0,.058v.015a5.746,5.746,0,0,1-2.891,4.561,5.648,5.648,0,0,1-2.8.739,5.746,5.746,0,0,1,0-11.492,5.654,5.654,0,0,1,1.757.278l.008-6.89A12.571,12.571,0,0,0,4.4,17.439a13.281,13.281,0,0,0-2.9,3.573A12.382,12.382,0,0,0,.008,26.7a13.414,13.414,0,0,0,.726,4.493v.016a13.224,13.224,0,0,0,1.837,3.351A13.752,13.752,0,0,0,5.5,37.321V37.3l.016.016a12.663,12.663,0,0,0,6.908,2.08,12.23,12.23,0,0,0,5.127-1.134,12.867,12.867,0,0,0,4.163-3.129,13.007,13.007,0,0,0,2.269-3.77,14.122,14.122,0,0,0,.817-4.312V13.174c.082.049,1.175.772,1.175.772a15.652,15.652,0,0,0,4.033,1.667,23.225,23.225,0,0,0,4.139.566V9.462A8.775,8.775,0,0,1,29.9,8.427" transform="translate(0 0)" fill="#1b2020"/>
  </g>
</svg>
