<svg id="noun-tree-7375261" xmlns="http://www.w3.org/2000/svg" width="63.422" height="77.858" viewBox="0 0 63.422 77.858">
  <path id="Path_40335" data-name="Path 40335" d="M40.979,0A13.686,13.686,0,0,0,27.308,13.659a13.361,13.361,0,0,0,.3,2.649,14.274,14.274,0,0,0-13.93,14.24v0A14.233,14.233,0,0,0,16.8,39.425a11.646,11.646,0,0,0,4.182,22.539H39.765V76.642a1.217,1.217,0,1,0,2.433,0V61.961H60.982a11.646,11.646,0,0,0,4.185-22.539,14.235,14.235,0,0,0,3.127-8.874l0,0a14.274,14.274,0,0,0-13.933-14.24,13.362,13.362,0,0,0,.3-2.649v0A13.684,13.684,0,0,0,40.981,0Zm0,2.433A11.2,11.2,0,0,1,51.643,17.187a1.216,1.216,0,0,0,1.274,1.6c.368-.036.736-.055,1.1-.058a11.822,11.822,0,0,1,8.1,20.447l0,0a1.217,1.217,0,0,0,.608,2.083A9.216,9.216,0,0,1,60.98,59.529H42.2V39.441l8.33-8.322A1.217,1.217,0,0,0,48.808,29.4L42.2,36V20.976a1.217,1.217,0,1,0-2.433,0v24.9l-6.609-6.6v0a1.218,1.218,0,0,0-2.077.864,1.211,1.211,0,0,0,.356.858l8.33,8.322V59.529H20.982a9.216,9.216,0,0,1-1.746-18.276,1.217,1.217,0,0,0,.608-2.083,11.822,11.822,0,0,1,8.1-20.447q.552,0,1.1.055h0a1.215,1.215,0,0,0,1.271-1.594A11.2,11.2,0,0,1,40.979,2.435Z" transform="translate(-9.273)" fill="#1b2020"/>
</svg>
