<svg id="Group_16145" data-name="Group 16145" xmlns="http://www.w3.org/2000/svg" width="26.466" height="27.553" viewBox="0 0 26.466 27.553">
  <path id="Path_49" data-name="Path 49" d="M45.761,36.062a1.874,1.874,0,0,0-2.628.212l-.548.644a.077.077,0,0,1-.077.02,5.144,5.144,0,0,1-2.959-2.777.062.062,0,0,1,.013-.064l.684-.792a1.875,1.875,0,0,0-.164-2.608l-1.528-1.38a1.87,1.87,0,0,0-2.652.152l-.92,1.041a2.86,2.86,0,0,0-.7,1.684,8.765,8.765,0,0,0,3.672,7.531c.3.272,2.892,2.5,5.8,2.5a5.174,5.174,0,0,0,1.728-.287,2.857,2.857,0,0,0,1.208-.823l.9-1.044a1.869,1.869,0,0,0-.208-2.648Zm.608,2.969-.9,1.044a1.247,1.247,0,0,1-.523.359c-2.741.959-5.912-1.88-5.944-1.9l-.045-.042a7.118,7.118,0,0,1-3.084-6.18,1.233,1.233,0,0,1,.308-.731l.92-1.041a.285.285,0,0,1,.187-.092H37.3a.275.275,0,0,1,.18.069l1.528,1.38a.274.274,0,0,1,.023.377l-.684.792a1.663,1.663,0,0,0-.244,1.8A6.741,6.741,0,0,0,42,38.465a1.667,1.667,0,0,0,1.8-.5l.548-.644a.27.27,0,0,1,.377-.031l1.612,1.364a.264.264,0,0,1,.1.184.286.286,0,0,1-.067.188Z" transform="translate(-27.62 -22.534)" fill="#1b2020"/>
  <path id="Path_50" data-name="Path 50" d="M31.111,13.077a13.016,13.016,0,0,0-11,19.976L17.66,40.63l7.231-3.1a13.018,13.018,0,1,0,6.22-24.453Zm8.076,21.089a11.419,11.419,0,0,1-13.841,1.784L25,35.741l-4.728,2.028,1.6-4.959-.22-.323a11.416,11.416,0,1,1,17.536,1.68Z" transform="translate(-17.66 -13.077)" fill="#1b2020"/>
</svg>
